<svg xmlns="http://www.w3.org/2000/svg" width="80" height="90" viewBox="0 0 134.298 175.999">
  <g id="block" transform="translate(-60.657)">
    <g id="组_2240" data-name="组 2240" transform="translate(114.547 99.567)">
      <g id="组_2239" data-name="组 2239">
        <path id="路径_7883" data-name="路径 7883" d="M230.688,289.651a13.258,13.258,0,0,0-3.451,26.059v19.069a3.451,3.451,0,1,0,6.9,0V315.71a13.258,13.258,0,0,0-3.451-26.059Zm0,19.615a6.357,6.357,0,1,1,6.357-6.357A6.364,6.364,0,0,1,230.688,309.266Z" transform="translate(-217.429 -289.651)" fill="#fff"/>
      </g>
    </g>
    <g id="组_2242" data-name="组 2242" transform="translate(60.657)">
      <g id="组_2241" data-name="组 2241" transform="translate(0)">
        <path id="路径_7884" data-name="路径 7884" d="M174.4,62.483h-7.74V38.851a38.851,38.851,0,0,0-77.7,0V62.483H81.214A20.579,20.579,0,0,0,60.657,83.037v72.4A20.581,20.581,0,0,0,81.214,176H174.4a20.581,20.581,0,0,0,20.557-20.557v-72.4A20.58,20.58,0,0,0,174.4,62.483ZM95.857,38.851a31.949,31.949,0,1,1,63.9,0V62.483h-9.732V38.851a22.217,22.217,0,1,0-44.434,0V62.483H95.857V38.851Zm47.264,0V62.483H112.49V38.851a15.315,15.315,0,1,1,30.631,0Zm44.932,116.591A13.671,13.671,0,0,1,174.4,169.1H81.214a13.671,13.671,0,0,1-13.655-13.655v-72.4A13.67,13.67,0,0,1,81.214,69.385H174.4a13.669,13.669,0,0,1,13.655,13.652Z" transform="translate(-60.657)" fill="#fff"/>
      </g>
    </g>
    <g id="组_2244" data-name="组 2244" transform="translate(176.457 95.906)">
      <g id="组_2243" data-name="组 2243">
        <path id="路径_7885" data-name="路径 7885" d="M400.983,279a3.451,3.451,0,0,0-3.451,3.451v30.424a3.451,3.451,0,0,0,6.9,0V282.453A3.451,3.451,0,0,0,400.983,279Z" transform="translate(-397.532 -279.002)" fill="#fff"/>
      </g>
    </g>
    <g id="组_2246" data-name="组 2246" transform="translate(176.493 84.52)">
      <g id="组_2245" data-name="组 2245">
        <path id="路径_7886" data-name="路径 7886" d="M400.969,245.877c-4.441,0-4.448,6.9,0,6.9S405.418,245.877,400.969,245.877Z" transform="translate(-397.635 -245.877)" fill="#fff"/>
      </g>
    </g>
  </g>
</svg>
