<svg xmlns="http://www.w3.org/2000/svg" width="88" height="90" viewBox="0 0 110.625 120">
  <g id="组_2278" data-name="组 2278" transform="translate(-20.001 0)">
    <path id="路径_7953" data-name="路径 7953" d="M129.939,49.769,108.718,28.576a2.342,2.342,0,0,0-1.656-.686h-5.075l6.033-6.032a2.343,2.343,0,0,0,0-3.314L90.162.687a2.344,2.344,0,0,0-3.315,0L79.432,8.1,59.618,27.915a2.332,2.332,0,0,0-.32-.025H43.524a2.341,2.341,0,0,0-1.658.688L20.688,49.77h0A2.337,2.337,0,0,0,20,51.428v66.228A2.344,2.344,0,0,0,22.345,120H128.283a2.344,2.344,0,0,0,2.344-2.344V93.917a2.344,2.344,0,0,0-4.687,0v21.395H24.688V53.771h101.25V75.166a2.344,2.344,0,0,0,4.687,0V51.428A2.341,2.341,0,0,0,129.939,49.769ZM82.746,11.416,88.5,5.658,103.047,20.2,84.761,38.487h-19.3l-4.893-4.893ZM28,49.084l16.5-16.506H55.144a2.342,2.342,0,0,0,.452,2.673l3.236,3.236H51.444a2.344,2.344,0,1,0,0,4.687H99.183a2.344,2.344,0,1,0,0-4.687H91.39l5.91-5.909h8.792l16.527,16.506Z" transform="translate(0 0)" fill="#fff"/>
    <path id="路径_7954" data-name="路径 7954" d="M474.349,350.707a2.346,2.346,0,1,0,1.657.688A2.358,2.358,0,0,0,474.349,350.707Z" transform="translate(-346.066 -268.511)" fill="#fff"/>
    <g id="组_2277" data-name="组 2277" transform="translate(49.766 60.585)">
      <path id="路径_7955" data-name="路径 7955" d="M158.646,281.15h40.1l-7.731-7.557h-24.65l3.363-3.293a4.536,4.536,0,0,1,6.381.034l.72.72h11.756L178.029,260.5a6.833,6.833,0,0,0-9.643-.02L147.543,281.15h11.1Z" transform="translate(-147.416 -258.499)" fill="#fff"/>
      <path id="路径_7956" data-name="路径 7956" d="M169.449,378.71l-3.458-3.446,7.882-7.663H147l7.694,7.665,12.33,12.35a7.863,7.863,0,0,0,11.125,0l20.041-20.041H186.572L175.515,378.7A4.288,4.288,0,0,1,169.449,378.71Z" transform="translate(-147 -342.014)" fill="#fff"/>
    </g>
  </g>
</svg>
