<svg xmlns="http://www.w3.org/2000/svg" width="90" height="90" viewBox="0 0 120 120">
  <g id="组_2276" data-name="组 2276" transform="translate(-8 -8)">
    <path id="路径_7944" data-name="路径 7944" d="M46.71,264a19.3,19.3,0,0,0-18.271,25.68l-6.134,1.227a7.706,7.706,0,1,0,1.179,4.061c0-.116-.029-.226-.035-.343l6.681-1.335a19.43,19.43,0,0,0,1.6,2.305L19.652,307.676a7.669,7.669,0,0,0-3.91-1.1,7.742,7.742,0,1,0,7.742,7.742,7.64,7.64,0,0,0-1.1-3.908L34.47,298.332a19.433,19.433,0,0,0,2.305,1.6l-1.335,6.681c-.116-.006-.226-.035-.343-.035a7.807,7.807,0,1,0,4.061,1.179l1.227-6.134A19.346,19.346,0,1,0,46.71,264ZM15.742,298.839a3.871,3.871,0,1,1,3.871-3.871A3.875,3.875,0,0,1,15.742,298.839ZM35.1,318.194a3.871,3.871,0,1,1,3.871-3.871A3.875,3.875,0,0,1,35.1,318.194Zm-19.355,0a3.871,3.871,0,1,1,3.871-3.871A3.875,3.875,0,0,1,15.742,318.194ZM46.71,298.839a15.484,15.484,0,1,1,15.484-15.484A15.5,15.5,0,0,1,46.71,298.839Z" transform="translate(0 -194.065)" fill="#fff"/>
    <path id="路径_7945" data-name="路径 7945" d="M190.452,50.581a19.367,19.367,0,0,0-10.03-16.951l7.868-10.492a7.62,7.62,0,0,0,2.162.346,7.764,7.764,0,1,0-5.516-2.323L176.75,32.074a19.231,19.231,0,0,0-3.72-.749V23.209a7.742,7.742,0,1,0-3.871,0v8.115a19.23,19.23,0,0,0-3.72.749l-8.181-10.912a8.183,8.183,0,1,0-3.356,1.978l7.868,10.492a19.351,19.351,0,1,0,28.682,16.949Zm0-38.71a3.871,3.871,0,1,1-3.871,3.871A3.875,3.875,0,0,1,190.452,11.871Zm-42.581,3.871a3.871,3.871,0,1,1,3.871,3.871A3.875,3.875,0,0,1,147.871,15.742Zm19.355,0a3.871,3.871,0,1,1,3.871,3.871A3.875,3.875,0,0,1,167.226,15.742ZM171.1,66.065a15.484,15.484,0,1,1,15.484-15.484A15.5,15.5,0,0,1,171.1,66.065Z" transform="translate(-103.097)" fill="#fff"/>
    <path id="路径_7946" data-name="路径 7946" d="M314.323,306.581a7.64,7.64,0,0,0-3.908,1.1L298.334,295.6a19.432,19.432,0,0,0,1.6-2.305l6.681,1.335c-.008.114-.037.225-.037.341a7.807,7.807,0,1,0,1.179-4.061l-6.134-1.227a19.429,19.429,0,1,0-11.946,11.946l1.227,6.134a7.706,7.706,0,1,0,4.061-1.179c-.116,0-.226.029-.343.035l-1.335-6.681a19.432,19.432,0,0,0,2.305-1.6l12.083,12.083a7.64,7.64,0,0,0-1.1,3.908,7.742,7.742,0,1,0,7.742-7.742Zm0-15.484a3.871,3.871,0,1,1-3.871,3.871A3.875,3.875,0,0,1,314.323,291.1Zm-15.484,23.226a3.871,3.871,0,1,1-3.871-3.871A3.875,3.875,0,0,1,298.839,314.323Zm-15.484-15.484a15.484,15.484,0,1,1,15.484-15.484A15.5,15.5,0,0,1,283.355,298.839Zm30.968,19.355a3.871,3.871,0,1,1,3.871-3.871A3.875,3.875,0,0,1,314.323,318.194Z" transform="translate(-194.065 -194.065)" fill="#fff"/>
    <g id="组_2273" data-name="组 2273" transform="translate(53.905 37.425)">
      <path id="路径_7947" data-name="路径 7947" d="M204.129,142.061H226.15l-4.246-4.15H208.367l1.847-1.809a2.491,2.491,0,0,1,3.5.018l.4.4h6.456l-5.8-5.8a3.753,3.753,0,0,0-5.3-.011l-11.447,11.352h6.1Z" transform="translate(-197.961 -129.622)" fill="#fff"/>
      <path id="路径_7948" data-name="路径 7948" d="M210.071,193.769l-1.9-1.892,4.328-4.209H197.742l4.226,4.21,6.772,6.783a4.318,4.318,0,0,0,6.11,0l11.007-11.007h-6.381l-6.073,6.105A2.354,2.354,0,0,1,210.071,193.769Z" transform="translate(-197.742 -173.615)" fill="#fff"/>
    </g>
    <g id="组_2274" data-name="组 2274" transform="translate(32.615 76.134)">
      <path id="路径_7949" data-name="路径 7949" d="M116.128,302.061H138.15l-4.246-4.15H120.367l1.847-1.809a2.491,2.491,0,0,1,3.5.018l.4.4h6.456l-5.8-5.8a3.753,3.753,0,0,0-5.3-.011l-11.447,11.352h6.1Z" transform="translate(-109.961 -289.622)" fill="#fff"/>
      <path id="路径_7950" data-name="路径 7950" d="M122.071,353.769l-1.9-1.892,4.328-4.209H109.742l4.226,4.21,6.772,6.783a4.318,4.318,0,0,0,6.11,0l11.007-11.007h-6.381l-6.073,6.105A2.354,2.354,0,0,1,122.071,353.769Z" transform="translate(-109.742 -333.615)" fill="#fff"/>
    </g>
    <g id="组_2275" data-name="组 2275" transform="translate(75.196 76.134)">
      <path id="路径_7951" data-name="路径 7951" d="M292.129,302.061H314.15l-4.246-4.15H296.367l1.847-1.809a2.491,2.491,0,0,1,3.5.018l.4.4h6.456l-5.8-5.8a3.753,3.753,0,0,0-5.3-.011l-11.447,11.352h6.1Z" transform="translate(-285.961 -289.622)" fill="#fff"/>
      <path id="路径_7952" data-name="路径 7952" d="M298.071,353.769l-1.9-1.892,4.328-4.209H285.742l4.226,4.21,6.772,6.783a4.318,4.318,0,0,0,6.11,0l11.007-11.007h-6.381l-6.073,6.105A2.354,2.354,0,0,1,298.071,353.769Z" transform="translate(-285.742 -333.615)" fill="#fff"/>
    </g>
  </g>
</svg>
