<svg xmlns="http://www.w3.org/2000/svg" width="90" height="90" viewBox="0 0 176 176">
  <g id="security" transform="translate(-8 -8)">
    <path id="路径_7893" data-name="路径 7893" d="M181.161,161.29H169.806V74.71a9.946,9.946,0,0,0-9.935-9.935H130.065V42.065a34.065,34.065,0,1,0-68.129,0v22.71H32.129a9.946,9.946,0,0,0-9.935,9.935V161.29H10.839A2.839,2.839,0,0,0,8,164.129v9.935A9.946,9.946,0,0,0,17.935,184H174.064A9.946,9.946,0,0,0,184,174.064v-9.935A2.839,2.839,0,0,0,181.161,161.29Zm-51.1-82.323h25.548v73.806H36.387V78.968H61.935v2.839H60.516a9.946,9.946,0,0,0-9.935,9.935V140a9.946,9.946,0,0,0,9.935,9.935h70.968A9.946,9.946,0,0,0,141.419,140V91.742a9.946,9.946,0,0,0-9.935-9.935h-1.419Zm-62.452-36.9a28.387,28.387,0,0,1,56.774,0V81.806H118.71V42.065a22.71,22.71,0,0,0-45.419,0V81.806H67.613ZM78.968,73.29V70.452h34.065V73.29Zm34.065,5.677v2.839H78.968V78.968ZM78.968,64.774V42.065a17.032,17.032,0,1,1,34.065,0v22.71Zm52.516,22.71a4.262,4.262,0,0,1,4.258,4.258V140a4.262,4.262,0,0,1-4.258,4.258H60.516A4.262,4.262,0,0,1,56.258,140V91.742a4.262,4.262,0,0,1,4.258-4.258ZM27.871,74.71a4.262,4.262,0,0,1,4.258-4.258H61.935V73.29H33.548a2.839,2.839,0,0,0-2.839,2.839v79.484a2.839,2.839,0,0,0,2.839,2.839h124.9a2.839,2.839,0,0,0,2.839-2.839V76.129a2.839,2.839,0,0,0-2.839-2.839H130.065V70.452h29.806a4.262,4.262,0,0,1,4.258,4.258V161.29H27.871Zm81.066,92.258-1.065,2.839H83.854l-.947-2.839Zm69.385,7.1a4.262,4.262,0,0,1-4.258,4.258H17.935a4.262,4.262,0,0,1-4.258-4.258v-7.1H76.92l2.193,6.575a2.839,2.839,0,0,0,2.693,1.941h28.032a2.84,2.84,0,0,0,2.658-1.842l2.5-6.675h63.325Z" fill="#fff"/>
    <circle id="椭圆_1151" data-name="椭圆 1151" cx="3" cy="3" r="3" transform="translate(127 90)" fill="#fff"/>
    <circle id="椭圆_1152" data-name="椭圆 1152" cx="3" cy="3" r="3" transform="translate(59 90)" fill="#fff"/>
    <ellipse id="椭圆_1153" data-name="椭圆 1153" cx="3" cy="2.5" rx="3" ry="2.5" transform="translate(127 136)" fill="#fff"/>
    <ellipse id="椭圆_1154" data-name="椭圆 1154" cx="3" cy="2.5" rx="3" ry="2.5" transform="translate(59 136)" fill="#fff"/>
    <path id="路径_7894" data-name="路径 7894" d="M209.548,291.1A25.548,25.548,0,1,0,184,265.548,25.548,25.548,0,0,0,209.548,291.1Zm0-45.419a19.871,19.871,0,1,1-19.871,19.871,19.871,19.871,0,0,1,19.871-19.871Z" transform="translate(-113.548 -149.677)" fill="#fff"/>
  </g>
</svg>
