<svg xmlns="http://www.w3.org/2000/svg" width="85" height="90" viewBox="0 0 168.128 175.999">
  <g id="compliant" transform="translate(-11.448 0)">
    <g id="组_2247" data-name="组 2247" transform="translate(11.448 0)">
      <path id="路径_7887" data-name="路径 7887" d="M143.12,226.878h14.767a2.578,2.578,0,0,0,0-5.156H143.12a2.578,2.578,0,0,0,0,5.156Z" transform="translate(-96.166 -145.506)" fill="#fff"/>
      <path id="路径_7888" data-name="路径 7888" d="M143.12,263.226h59.974a2.578,2.578,0,1,0,0-5.156H143.12a2.578,2.578,0,1,0,0,5.156Z" transform="translate(-96.166 -169.359)" fill="#fff"/>
      <path id="路径_7889" data-name="路径 7889" d="M287.067,294.417H271.078a2.578,2.578,0,1,0,0,5.156h15.988a2.578,2.578,0,1,0,0-5.156Z" transform="translate(-180.139 -193.212)" fill="#fff"/>
      <path id="路径_7890" data-name="路径 7890" d="M176.25,17.309,142.88.632a6.043,6.043,0,0,0-5.379,0L104.13,17.309h0A5.983,5.983,0,0,0,100.8,22.69v4.8H64.575a2.578,2.578,0,0,0,0,5.156H100.8v7.841a65.678,65.678,0,0,0,.846,10.743H58.4a2.578,2.578,0,0,0,0,5.156h44.351a50.435,50.435,0,0,0,2.563,7.338H58.4a2.578,2.578,0,1,0,0,5.156h49.55a50.715,50.715,0,0,0,2.978,4.493q1.067,1.44,2.259,2.845H83.481a2.578,2.578,0,0,0,0,5.156h34.626a115,115,0,0,0,18.937,13.932,6,6,0,0,0,6.292,0c.264-.161.522-.322.782-.482v62.608H76.664v-4.807a2.578,2.578,0,0,0-5.156,0v17.359a.86.86,0,0,1-.859.859H17.463a.86.86,0,0,1-.859-.859V132.85a.86.86,0,0,1,.859-.859H70.648a.86.86,0,0,1,.859.859v7.744a2.578,2.578,0,0,0,5.156,0V132.85a5.987,5.987,0,0,0-.2-1.5h41.908a2.578,2.578,0,0,0,0-5.156h-50v-7.338h50a2.578,2.578,0,0,0,0-5.156h-50.1a24.131,24.131,0,0,0-1.865-7.338h26.7a2.578,2.578,0,0,0,0-5.156H63.383A24.278,24.278,0,0,0,32.659,94.47V32.644H52.544a2.578,2.578,0,1,0,0-5.156H31.8a4.3,4.3,0,0,0-4.3,4.3V98.15a24.256,24.256,0,0,0-7.77,17.8v10.883H17.463a6.023,6.023,0,0,0-6.016,6.016v37.134A6.023,6.023,0,0,0,17.463,176H70.648a6.023,6.023,0,0,0,6.016-6.016v-7.4h68.313a4.3,4.3,0,0,0,4.3-4.3V91.511c9.177-6.141,15.53-11.873,20.176-18.139,6.813-9.188,10.126-19.946,10.126-32.887V22.69a5.982,5.982,0,0,0-3.326-5.381ZM52.911,126.834H35.2V115.951a8.855,8.855,0,0,1,17.711,0v10.883ZM24.888,115.951a19.168,19.168,0,1,1,38.335,0v10.883H58.068V115.951a14.012,14.012,0,0,0-28.023,0v10.883H24.888ZM174.42,40.485c0,24.776-12.924,37.662-33.775,50.422a.878.878,0,0,1-.91,0c-20.852-12.76-33.776-25.646-33.776-50.422V22.69a.855.855,0,0,1,.475-.769L139.806,5.243a.863.863,0,0,1,.768,0l33.37,16.678a.855.855,0,0,1,.475.769v17.8Z" transform="translate(-11.448 0)" fill="#fff"/>
      <path id="路径_7891" data-name="路径 7891" d="M335.715,52.13a26.089,26.089,0,1,0,24.577,34.848,2.578,2.578,0,1,0-4.857-1.731,20.943,20.943,0,1,1,.882-10.714,2.578,2.578,0,1,0,5.077-.9,26.04,26.04,0,0,0-25.679-21.5Z" transform="translate(-207.128 -34.21)" fill="#fff"/>
      <path id="路径_7892" data-name="路径 7892" d="M372.465,106.061l-10.158,10.158-5.907-5.907a2.578,2.578,0,1,0-3.646,3.646l7.73,7.73a2.578,2.578,0,0,0,3.646,0l11.981-11.981a2.578,2.578,0,1,0-3.646-3.646Z" transform="translate(-234.935 -69.107)" fill="#fff"/>
    </g>
  </g>
</svg>
