<svg xmlns="http://www.w3.org/2000/svg" width="100" height="90" viewBox="0 0 202.424 125.473">
  <g id="torch" transform="translate(0 -97.321)">
    <path id="路径_7895" data-name="路径 7895" d="M195.506,191.931h-6.47a89.776,89.776,0,0,0-25.663-60.352,87.219,87.219,0,0,0-40.449-23.5,9.041,9.041,0,0,0-8.749-10.762H88.248A9.031,9.031,0,0,0,79.5,108.084a86.26,86.26,0,0,0-30.483,14.746,2.965,2.965,0,0,0,3.569,4.736,80.4,80.4,0,0,1,27.558-13.515l3.4,31.506a31.789,31.789,0,0,0-12.109,15.564H26.208a83.705,83.705,0,0,1,16.464-24.752,2.965,2.965,0,0,0-4.279-4.106,89.879,89.879,0,0,0-25,59.669H6.919A6.974,6.974,0,0,0,0,198.851a23.97,23.97,0,0,0,23.943,23.943H178.481a23.941,23.941,0,0,0,23.943-23.944,6.927,6.927,0,0,0-6.919-6.919Zm-14.322-15.423H142.67a2.965,2.965,0,0,0,0,5.93h39.591a86.373,86.373,0,0,1,.841,9.493H125.571a31.587,31.587,0,0,0,6.915-24.88h46.04a84.166,84.166,0,0,1,2.657,9.457Zm-58.9-62.461a81.34,81.34,0,0,1,36.857,21.684,83.688,83.688,0,0,1,17.089,25.39H130.988a31.787,31.787,0,0,0-12.109-15.564ZM88.248,103.251h25.928a2.987,2.987,0,0,1,2.951,3.283l-3.886,36a31.559,31.559,0,0,0-24.056,0l-3.886-36a2.985,2.985,0,0,1,2.95-3.286Zm12.964,42.829a25.7,25.7,0,1,1-25.7,25.7A25.728,25.728,0,0,1,101.212,146.081ZM23.9,167.051H69.938a31.7,31.7,0,0,0,0,9.457H21.247a84.224,84.224,0,0,1,2.655-9.457Zm-3.735,15.387H71.436a31.634,31.634,0,0,0,5.417,9.493H19.322A86.135,86.135,0,0,1,20.168,182.438Zm171.051,29.148a17.9,17.9,0,0,1-12.737,5.275H23.943A18.033,18.033,0,0,1,5.93,198.849a.919.919,0,0,1,.988-.988H83.347a31.544,31.544,0,0,0,35.731,0h76.428a.99.99,0,0,1,.988.988A17.9,17.9,0,0,1,191.219,211.586Zm-90.006-20.039a19.768,19.768,0,1,0-19.768-19.768,19.79,19.79,0,0,0,19.768,19.768Zm0-33.606a13.838,13.838,0,1,1-13.838,13.838,13.853,13.853,0,0,1,13.838-13.838Z" transform="translate(0 0)" fill="#fff"/>
  </g>
</svg>
