<svg xmlns="http://www.w3.org/2000/svg" width="90" height="90" viewBox="0 0 121.483 125.672">
  <g id="stock" transform="translate(-24 -16)">
    <path id="路径_7896" data-name="路径 7896" d="M104,232v35.607a2.1,2.1,0,0,0,2.095,2.095H196.16v-4.189H108.189V232Z" transform="translate(-59.055 -159.447)" fill="#fff"/>
    <path id="路径_7897" data-name="路径 7897" d="M136,290.095v10.473a2.1,2.1,0,0,0,2.094,2.095h8.378a2.1,2.1,0,0,0,2.095-2.095V290.095A2.1,2.1,0,0,0,146.473,288h-8.378A2.1,2.1,0,0,0,136,290.095Zm4.189,2.095h4.189v6.284h-4.189Z" transform="translate(-82.676 -200.786)" fill="#fff"/>
    <path id="路径_7898" data-name="路径 7898" d="M202.095,256A2.1,2.1,0,0,0,200,258.095v18.851a2.1,2.1,0,0,0,2.095,2.095h8.378a2.1,2.1,0,0,0,2.095-2.095V258.095A2.1,2.1,0,0,0,210.473,256Zm6.284,18.851h-4.189V260.189h4.189Z" transform="translate(-129.92 -177.164)" fill="#fff"/>
    <path id="路径_7899" data-name="路径 7899" d="M266.095,288A2.1,2.1,0,0,0,264,290.095v10.473a2.1,2.1,0,0,0,2.095,2.095h8.378a2.1,2.1,0,0,0,2.095-2.095V290.095A2.1,2.1,0,0,0,274.473,288Zm6.284,10.473h-4.189v-6.284h4.189Z" transform="translate(-177.164 -200.786)" fill="#fff"/>
    <path id="路径_7900" data-name="路径 7900" d="M330.095,256A2.1,2.1,0,0,0,328,258.095v18.851a2.1,2.1,0,0,0,2.095,2.095h8.378a2.1,2.1,0,0,0,2.095-2.095V258.095A2.1,2.1,0,0,0,338.473,256Zm6.284,18.851h-4.189V260.189h4.189Z" transform="translate(-224.407 -177.164)" fill="#fff"/>
    <path id="路径_7901" data-name="路径 7901" d="M392,218.095v29.324a2.1,2.1,0,0,0,2.094,2.095h8.378a2.1,2.1,0,0,0,2.095-2.095V218.095A2.1,2.1,0,0,0,402.473,216h-8.378A2.1,2.1,0,0,0,392,218.095Zm4.189,2.095h4.189v25.134h-4.189Z" transform="translate(-271.651 -147.637)" fill="#fff"/>
    <path id="路径_7902" data-name="路径 7902" d="M174.062,151.275a2.1,2.1,0,0,0-2.962,0l-16.756,16.756,2.962,2.962,15.275-15.276,15.275,15.275a2.1,2.1,0,0,0,2.962,0l27.842-27.842v5.416h4.189V138.095A2.1,2.1,0,0,0,220.755,136H210.283v4.189H215.7l-26.361,26.362Z" transform="translate(-96.217 -88.582)" fill="#fff"/>
    <path id="路径_7903" data-name="路径 7903" d="M184.727,104H80v4.189H182.632V179.4H80v4.189H184.727a2.1,2.1,0,0,0,2.095-2.095v-75.4A2.1,2.1,0,0,0,184.727,104Z" transform="translate(-41.338 -64.96)" fill="#fff"/>
    <path id="路径_7904" data-name="路径 7904" d="M91.025,135.389a2.1,2.1,0,0,1-2.095,2.095H30.284a2.1,2.1,0,0,1-2.095-2.095V22.284a2.1,2.1,0,0,1,2.095-2.095H88.931a2.1,2.1,0,0,1,2.095,2.095V34.851h4.189V22.284A6.291,6.291,0,0,0,88.931,16H30.284A6.291,6.291,0,0,0,24,22.284V135.389a6.291,6.291,0,0,0,6.284,6.284H88.931a6.291,6.291,0,0,0,6.284-6.284V122.822H91.025Z" fill="#fff"/>
    <path id="路径_7905" data-name="路径 7905" d="M106.647,52.567V42.095A2.1,2.1,0,0,0,104.553,40H83.607a2.1,2.1,0,0,0-2.095,2.095,4.189,4.189,0,1,1-8.378,0A2.1,2.1,0,0,0,71.04,40H50.095A2.1,2.1,0,0,0,48,42.095V151.011a2.1,2.1,0,0,0,2.095,2.095h54.458a2.1,2.1,0,0,0,2.095-2.095V140.538h-4.189v8.378H52.189V44.189H69.21a8.379,8.379,0,0,0,16.226,0h17.021v8.378Z" transform="translate(-17.716 -17.716)" fill="#fff"/>
    <circle id="椭圆_1155" data-name="椭圆 1155" cx="2" cy="2" r="2" transform="translate(58 22.672)" fill="#fff"/>
  </g>
</svg>
