<svg xmlns="http://www.w3.org/2000/svg" width="90" height="90" viewBox="0 0 125.064 125.064">
  <g id="_06-Coin" data-name=" 06-Coin" transform="translate(707.829 -68)">
    <g id="filled" transform="translate(-707.829 68)">
      <path id="路径_7906" data-name="路径 7906" d="M-583.638,104.6l-15.881-15.881a2.977,2.977,0,0,0-4.211,0,2.977,2.977,0,0,0-.872,2.105v4.963h-5.955V78.918A10.93,10.93,0,0,0-621.476,68h-47.643a10.931,10.931,0,0,0-10.918,10.918v64.517h-5.955v-4.963a2.977,2.977,0,0,0-2.978-2.977,2.977,2.977,0,0,0-2.105.872l-15.881,15.881a2.978,2.978,0,0,0,0,4.211l15.881,15.881a3,3,0,0,0,5.083-2.105v-4.963h5.955v16.874a10.931,10.931,0,0,0,10.918,10.918h47.643a10.93,10.93,0,0,0,10.918-10.918V117.629h5.955v4.963a3,3,0,0,0,5.083,2.105l15.881-15.881A2.978,2.978,0,0,0-583.638,104.6Zm-85.482-30.649h47.643a4.968,4.968,0,0,1,4.963,4.963v4.963h-57.569V78.918A4.969,4.969,0,0,1-669.119,73.955Zm47.643,113.153h-47.643a4.969,4.969,0,0,1-4.963-4.963v-4.963h57.569v4.963A4.968,4.968,0,0,1-621.476,187.109Zm22.829-71.706v-.752a2.978,2.978,0,0,0-2.978-2.978h-23.822a2.978,2.978,0,0,0-2.978,2.978,2.978,2.978,0,0,0,2.978,2.978h8.933v53.6h-57.569v-5.955h8.933a2.978,2.978,0,0,0,2.978-2.978,2.978,2.978,0,0,0-2.978-2.978h-23.822a2.978,2.978,0,0,0-2.978,2.978v.752l-8.692-8.692,8.692-8.692v.752a2.978,2.978,0,0,0,2.978,2.978h23.822a2.978,2.978,0,0,0,2.978-2.978,2.978,2.978,0,0,0-2.978-2.978h-8.933v-53.6h57.569v5.955h-8.933a2.978,2.978,0,0,0-2.978,2.978,2.978,2.978,0,0,0,2.978,2.978h23.822a2.978,2.978,0,0,0,2.978-2.978v-.752l8.692,8.692Z" transform="translate(707.829 -68)" fill="#fff"/>
    </g>
  </g>
</svg>
