<svg id="world-grid" xmlns="http://www.w3.org/2000/svg" width="90" height="90" viewBox="0 0 119.999 120">
  <path id="路径_7935" data-name="路径 7935" d="M107.488,54.278h-10a1.758,1.758,0,0,0,0,3.516h10a9.018,9.018,0,0,1,9,9.019v67.134a9.018,9.018,0,0,1-9,9.019H12.512a9.017,9.017,0,0,1-9-9.019V121.5A1.758,1.758,0,0,0,0,121.5v12.444a12.537,12.537,0,0,0,12.512,12.535H48.2l-3.54,11.559h-7.8a1.758,1.758,0,1,0,0,3.516H83.136a1.758,1.758,0,1,0,0-3.516h-7.8L71.8,146.482h35.686A12.537,12.537,0,0,0,120,133.947V66.813a12.537,12.537,0,0,0-12.511-12.535ZM48.335,158.041l3.54-11.559h16.25l3.539,11.559Z" transform="translate(0 -41.557)" fill="#fff"/>
  <path id="路径_7936" data-name="路径 7936" d="M1.758,115.085a1.758,1.758,0,0,0,1.758-1.758V66.814a9.018,9.018,0,0,1,9-9.019h5.1a1.758,1.758,0,1,0,0-3.516h-5.1A12.537,12.537,0,0,0,0,66.814v46.514a1.758,1.758,0,0,0,1.758,1.758Z" transform="translate(0 -41.557)" fill="#fff"/>
  <path id="路径_7937" data-name="路径 7937" d="M437.741,88.334a5.568,5.568,0,0,0-5.558-5.566h-6.256a1.758,1.758,0,1,0,0,3.516h6.256a2.049,2.049,0,0,1,2.042,2.05V122.8a1.758,1.758,0,0,0,3.516,0Z" transform="translate(-324.755 -63.369)" fill="#fff"/>
  <path id="路径_7938" data-name="路径 7938" d="M135.9,148.789V131.077a1.758,1.758,0,0,0-3.516,0v17.712a2.049,2.049,0,0,1-2.042,2.051H35.482a2.049,2.049,0,0,1-2.042-2.051V88.334a2.049,2.049,0,0,1,2.042-2.05h3.311a1.758,1.758,0,0,0,0-3.516H35.482a5.568,5.568,0,0,0-5.558,5.566v60.455a5.568,5.568,0,0,0,5.558,5.566h94.857A5.568,5.568,0,0,0,135.9,148.789Z" transform="translate(-22.911 -63.369)" fill="#fff"/>
  <path id="路径_7939" data-name="路径 7939" d="M58.313,402.976a1.758,1.758,0,1,0,0,3.516h7.181a1.758,1.758,0,1,0,0-3.516Z" transform="translate(-43.3 -308.529)" fill="#fff"/>
  <path id="路径_7940" data-name="路径 7940" d="M118.313,402.976a1.758,1.758,0,1,0,0,3.516h7.181a1.758,1.758,0,1,0,0-3.516Z" transform="translate(-89.238 -308.529)" fill="#fff"/>
  <path id="路径_7941" data-name="路径 7941" d="M124.692,80.588A40.317,40.317,0,0,0,159.439,60.76a1.758,1.758,0,0,0-3.026-1.789,37.014,37.014,0,0,1-8.125,9.554q-2.168-.976-4.494-1.756a55.279,55.279,0,0,0,6.146-24.716h11.524a36.6,36.6,0,0,1-1.9,10.073,1.758,1.758,0,1,0,3.329,1.131A40.318,40.318,0,0,0,124.692,0a39.931,39.931,0,0,0-18.266,4.361A40.7,40.7,0,0,0,93.382,14.9a5.856,5.856,0,0,0-5.868,9.76,39.933,39.933,0,0,0-3.149,15.636,40.357,40.357,0,0,0,40.328,40.294ZM87.921,42.052H99.445a55.279,55.279,0,0,0,6.146,24.716q-2.314.777-4.478,1.749A36.716,36.716,0,0,1,87.921,42.052Zm16.457,28.9q1.5-.6,3.082-1.1a30.971,30.971,0,0,0,3.847,4.7A36.756,36.756,0,0,1,104.378,70.953Zm18.556,6c-4.344-.6-8.46-3.4-11.88-8.093a58.265,58.265,0,0,1,11.88-1.525Zm0-13.134a61.277,61.277,0,0,0-13.892,1.922c-3.7-6.475-5.832-14.788-6.08-23.688h19.973v4.819a5.857,5.857,0,0,0,0,11.177v5.769Zm3.516,13.134V67.334a58.265,58.265,0,0,1,11.88,1.525C134.91,73.549,130.794,76.354,126.45,76.952Zm18.573-5.993q-.887.589-1.809,1.126a36.47,36.47,0,0,1-5.146,2.481,30.952,30.952,0,0,0,3.857-4.711Q143.51,70.359,145.023,70.959Zm1.986-40.792a2.342,2.342,0,1,1,2.346-2.342A2.346,2.346,0,0,1,147.009,30.168Zm14.454,8.369H149.939c-.049-1.829-.174-3.649-.375-5.44a5.857,5.857,0,0,0-2.334-11.125,46.681,46.681,0,0,0-3.436-8.152q2.313-.777,4.477-1.748A36.715,36.715,0,0,1,161.463,38.536Zm-16.457-28.9q-1.5.6-3.082,1.1a31.609,31.609,0,0,0-3.2-4.029q-.329-.349-.664-.68A36.736,36.736,0,0,1,145.006,9.636Zm-18.556-6c4.368.615,8.5,3.5,11.87,8.092a58.275,58.275,0,0,1-11.87,1.522Zm0,13.131a61.29,61.29,0,0,0,13.889-1.921,42.3,42.3,0,0,1,3.5,8.052,5.855,5.855,0,0,0,2.248,10.709c.178,1.622.291,3.27.338,4.926H126.45Zm0,25.281h19.972c-.248,8.9-2.38,17.213-6.08,23.688a61.291,61.291,0,0,0-13.892-1.922V58.049a5.857,5.857,0,0,0,0-11.177Zm-1.758,8.066a2.342,2.342,0,1,1-2.346,2.342A2.346,2.346,0,0,1,124.692,50.118ZM122.934,3.637v9.617a58.271,58.271,0,0,1-11.9-1.529c3.359-4.6,7.492-7.479,11.9-8.088ZM108.019,7.495q1.651-.84,3.357-1.5a30.841,30.841,0,0,0-3.912,4.743q-1.587-.5-3.1-1.1A36.463,36.463,0,0,1,108.019,7.495Zm-16.4,10.649a2.342,2.342,0,1,1-2.346,2.342A2.347,2.347,0,0,1,91.624,18.144Zm-.972,8.119a5.855,5.855,0,0,0,5.618-9.344,37.174,37.174,0,0,1,4.83-4.853q2.167.975,4.491,1.755A48.165,48.165,0,0,0,101.4,24.551a1.758,1.758,0,1,0,3.4.9,44.443,44.443,0,0,1,4.224-10.6,61.268,61.268,0,0,0,13.907,1.926V38.537H102.962c.052-1.826.184-3.643.394-5.422a1.758,1.758,0,1,0-3.491-.413c-.227,1.915-.367,3.871-.42,5.835H87.92a36.337,36.337,0,0,1,2.732-12.273Z" transform="translate(-64.591)" fill="#fff"/>
  <path id="路径_7942" data-name="路径 7942" d="M78.771,298.688H71.238a1.758,1.758,0,0,0,0,3.516h7.533a1.758,1.758,0,0,0,0-3.516Z" transform="translate(-53.196 -228.683)" fill="#fff"/>
  <path id="路径_7943" data-name="路径 7943" d="M69.48,335.446a1.758,1.758,0,0,0,1.758,1.758H83.451a1.758,1.758,0,0,0,0-3.516H71.238A1.758,1.758,0,0,0,69.48,335.446Z" transform="translate(-53.196 -255.48)" fill="#fff"/>
</svg>
