<svg xmlns="http://www.w3.org/2000/svg" width="90" height="90" viewBox="0 0 120.638 120">
  <g id="组_2331" data-name="组 2331" transform="translate(0.302)">
    <g id="组_2280" data-name="组 2280" transform="translate(14.017)">
      <g id="组_2279" data-name="组 2279">
        <path id="路径_7957" data-name="路径 7957" d="M148,68V64h-8V60h2V56h-2V50a2,2,0,0,0-2-2h-8V28a28,28,0,1,0-56,0V48H66a2,2,0,0,0-2,2V66H58v4h6V84H62v4h2v12H60v4h4v4H56v4h8v6a2,2,0,0,0,2,2h72a2,2,0,0,0,2-2V96h2V92h-2V86h6V82h-6V68ZM78,28a24,24,0,0,1,48,0V48h-6V28a18,18,0,0,0-36,0V48H78Zm38,0V48H88V28a14,14,0,0,1,28,0Zm20,88H68V104h8v-4H68V88H80V84H68V70h8V66H68V52h68Z" transform="translate(-56)" fill="#fff"/>
      </g>
    </g>
    <g id="组_2282" data-name="组 2282" transform="translate(42.017 56)">
      <g id="组_2281" data-name="组 2281">
        <path id="路径_7958" data-name="路径 7958" d="M197.457,229.981A14,14,0,0,0,186,224H170v4h6.222A13.965,13.965,0,0,0,178,249.476V250h-6v4h6v4h-4v4h4v4H168v4h10v6H168v4h24a2,2,0,0,0,2-2V249.476A14,14,0,0,0,197.457,229.981ZM190,276h-8v-6h8Zm0-10h-8v-4h4v-4h-4v-4h8Zm5.774-26H180v4h13.98a10.026,10.026,0,0,1-2.98,2.652,2,2,0,0,0-1,1.73V250h-8v-1.618a2,2,0,0,0-1-1.73A10,10,0,0,1,186,228a9.9,9.9,0,0,1,9.774,12Z" transform="translate(-168 -224)" fill="#fff"/>
      </g>
    </g>
    <g id="组_2284" data-name="组 2284" transform="translate(37.794 66.349)">
      <g id="组_2283" data-name="组 2283" transform="translate(0 0)">
        <rect id="矩形_20027" data-name="矩形 20027" width="4.233" height="3.175" fill="#fff"/>
      </g>
    </g>
    <g id="组_2286" data-name="组 2286" transform="translate(32.503 91.746)">
      <g id="组_2285" data-name="组 2285" transform="translate(0 0)">
        <rect id="矩形_20028" data-name="矩形 20028" width="11.641" height="4.233" fill="#fff"/>
      </g>
    </g>
    <g id="组_2288" data-name="组 2288" transform="translate(57.901 64.233)">
      <g id="组_2287" data-name="组 2287" transform="translate(0 0)">
        <rect id="矩形_20029" data-name="矩形 20029" width="8.466" height="4.233" fill="#fff"/>
      </g>
    </g>
    <g id="组_2290" data-name="组 2290" transform="translate(37.794 75.873)">
      <g id="组_2289" data-name="组 2289" transform="translate(0 0)">
        <rect id="矩形_20030" data-name="矩形 20030" width="8.466" height="4.233" fill="#fff"/>
      </g>
    </g>
    <g id="组_2292" data-name="组 2292" transform="translate(30.387 77.989)">
      <g id="组_2291" data-name="组 2291" transform="translate(0 0)">
        <rect id="矩形_20031" data-name="矩形 20031" width="3.175" height="4.233" fill="#fff"/>
      </g>
    </g>
    <g id="组_2294" data-name="组 2294" transform="translate(-0.302 98.096)">
      <g id="组_2293" data-name="组 2293" transform="translate(0 0)">
        <rect id="矩形_20032" data-name="矩形 20032" width="6.349" height="4.233" fill="#fff"/>
      </g>
    </g>
    <g id="组_2296" data-name="组 2296" transform="translate(-0.302 84.339)">
      <g id="组_2295" data-name="组 2295" transform="translate(0 0)">
        <rect id="矩形_20033" data-name="矩形 20033" width="8.466" height="3.175" fill="#fff"/>
      </g>
    </g>
    <g id="组_2298" data-name="组 2298" transform="translate(12.397 55.767)">
      <g id="组_2297" data-name="组 2297" transform="translate(0 0)">
        <rect id="矩形_20034" data-name="矩形 20034" width="7.408" height="4.233" fill="#fff"/>
      </g>
    </g>
    <g id="组_2300" data-name="组 2300" transform="translate(3.931 73.757)">
      <g id="组_2299" data-name="组 2299" transform="translate(0 0)">
        <rect id="矩形_20035" data-name="矩形 20035" width="11.641" height="4.233" fill="#fff"/>
      </g>
    </g>
    <g id="组_2302" data-name="组 2302" transform="translate(-0.302 66.349)">
      <g id="组_2301" data-name="组 2301" transform="translate(0 0)">
        <rect id="矩形_20036" data-name="矩形 20036" width="4.233" height="3.175" fill="#fff"/>
      </g>
    </g>
    <g id="组_2304" data-name="组 2304" transform="translate(-0.302 57.883)">
      <g id="组_2303" data-name="组 2303" transform="translate(0 0)">
        <rect id="矩形_20037" data-name="矩形 20037" width="4.233" height="4.233" fill="#fff"/>
      </g>
    </g>
    <g id="组_2306" data-name="组 2306" transform="translate(6.048 107.62)">
      <g id="组_2305" data-name="组 2305" transform="translate(0 0)">
        <rect id="矩形_20038" data-name="矩形 20038" width="4.233" height="4.233" fill="#fff"/>
      </g>
    </g>
    <g id="组_2308" data-name="组 2308" transform="translate(12.397 84.339)">
      <g id="组_2307" data-name="组 2307" transform="translate(0 0)">
        <rect id="矩形_20039" data-name="矩形 20039" width="3.175" height="3.175" fill="#fff"/>
      </g>
    </g>
    <g id="组_2310" data-name="组 2310" transform="translate(10.28 91.746)">
      <g id="组_2309" data-name="组 2309" transform="translate(0 0)">
        <rect id="矩形_20040" data-name="矩形 20040" width="7.408" height="4.233" fill="#fff"/>
      </g>
    </g>
    <g id="组_2312" data-name="组 2312" transform="translate(111.87 64.233)">
      <g id="组_2311" data-name="组 2311" transform="translate(0 0)">
        <rect id="矩形_20041" data-name="矩形 20041" width="8.466" height="4.233" fill="#fff"/>
      </g>
    </g>
    <g id="组_2314" data-name="组 2314" transform="translate(111.87 98.096)">
      <g id="组_2313" data-name="组 2313" transform="translate(0 0)">
        <rect id="矩形_20042" data-name="矩形 20042" width="8.466" height="4.233" fill="#fff"/>
      </g>
    </g>
    <g id="组_2316" data-name="组 2316" transform="translate(102.017 56)">
      <g id="组_2315" data-name="组 2315">
        <path id="路径_7959" data-name="路径 7959" d="M418,224H408v4h14v-4Z" transform="translate(-408 -224)" fill="#fff"/>
      </g>
    </g>
    <g id="组_2318" data-name="组 2318" transform="translate(100.23 71.64)">
      <g id="组_2317" data-name="组 2317" transform="translate(0 0)">
        <rect id="矩形_20043" data-name="矩形 20043" width="11.641" height="4.233" fill="#fff"/>
      </g>
    </g>
    <g id="组_2320" data-name="组 2320" transform="translate(109.754 105.503)">
      <g id="组_2319" data-name="组 2319" transform="translate(0 0)">
        <rect id="矩形_20044" data-name="矩形 20044" width="10.582" height="4.233" fill="#fff"/>
      </g>
    </g>
    <g id="组_2322" data-name="组 2322" transform="translate(102.346 105.503)">
      <g id="组_2321" data-name="组 2321" transform="translate(0 0)">
        <rect id="矩形_20045" data-name="矩形 20045" width="3.175" height="4.233" fill="#fff"/>
      </g>
    </g>
    <g id="组_2324" data-name="组 2324" transform="translate(107.638 82.222)">
      <g id="组_2323" data-name="组 2323" transform="translate(0 0)">
        <rect id="矩形_20046" data-name="矩形 20046" width="12.699" height="4.233" fill="#fff"/>
      </g>
    </g>
    <g id="组_2326" data-name="组 2326" transform="translate(105.521 89.63)">
      <g id="组_2325" data-name="组 2325" transform="translate(0 0)">
        <rect id="矩形_20047" data-name="矩形 20047" width="8.466" height="4.233" fill="#fff"/>
      </g>
    </g>
    <g id="组_2328" data-name="组 2328" transform="translate(104.463 98.096)">
      <g id="组_2327" data-name="组 2327" transform="translate(0 0)">
        <rect id="矩形_20048" data-name="矩形 20048" width="3.175" height="4.233" fill="#fff"/>
      </g>
    </g>
    <g id="组_2330" data-name="组 2330" transform="translate(30.387 57.883)">
      <g id="组_2329" data-name="组 2329" transform="translate(0 0)">
        <rect id="矩形_20049" data-name="矩形 20049" width="5.291" height="4.233" fill="#fff"/>
      </g>
    </g>
  </g>
</svg>
