<?xml version="1.0" encoding="iso-8859-1"?>
<!-- Generator: Adobe Illustrator 23.1.0, SVG Export Plug-In . SVG Version: 6.00 Build 0)  -->
<svg version="1.1" id="Layer_1" xmlns="http://www.w3.org/2000/svg" xmlns:xlink="http://www.w3.org/1999/xlink" x="0px" y="0px"
	 viewBox="0 0 90 90" style="enable-background:new 0 0 90 90;" xml:space="preserve">
<g>
	<path style="fill:#FFFFFF;" d="M84.857,12.26h-2.028C80.943,5.605,74.804,0.872,67.776,0.872h-5.694
		c-7.028,0-13.167,4.733-15.053,11.388h-4.039C41.085,5.605,34.947,0.872,27.918,0.872h-5.694c-7.028,0-13.167,4.733-15.053,11.388
		H5.143c-2.349,0-4.27,1.922-4.27,4.27s1.922,4.27,4.27,4.27h2.028c1.708,6.05,6.939,10.48,13.149,11.263
		c-0.836,0.961-1.601,1.957-2.313,2.989l2.349,1.601c1.103-1.619,2.402-3.096,3.79-4.466h3.772c7.028,0,13.167-4.733,15.053-11.388
		h4.039c1.886,6.655,8.043,11.388,15.053,11.388h3.79c1.406,1.37,2.687,2.847,3.79,4.466l2.349-1.601
		c-0.712-1.05-1.495-2.028-2.331-2.989c6.228-0.765,11.459-5.213,13.167-11.263h2.028c2.349,0,4.27-1.922,4.27-4.27
		S87.206,12.26,84.857,12.26z M62.082,3.719h5.694c5.463,0,10.285,3.505,12.064,8.541h-3.096c-1.637-3.434-5.107-5.694-8.968-5.694
		h-5.694c-3.861,0-7.331,2.26-8.968,5.694h-3.096C51.797,7.225,56.619,3.719,62.082,3.719z M73.469,20.801
		c-1.317,1.762-3.416,2.847-5.694,2.847h-5.694c-2.278,0-4.359-1.085-5.694-2.847c2.349,0,4.27-1.922,4.27-4.27
		s-1.904-4.27-4.27-4.27c1.317-1.762,3.416-2.847,5.694-2.847h5.694c2.278,0,4.359,1.085,5.694,2.847c-2.349,0-4.27,1.922-4.27,4.27
		S71.103,20.801,73.469,20.801z M16.531,12.26c1.317-1.762,3.416-2.847,5.694-2.847h5.694c2.278,0,4.359,1.085,5.694,2.847
		c-2.349,0-4.27,1.922-4.27,4.27s1.904,4.27,4.27,4.27c-1.317,1.762-3.416,2.847-5.694,2.847h-5.694
		c-2.278,0-4.359-1.085-5.694-2.847c2.349,0,4.27-1.922,4.27-4.27S18.897,12.26,16.531,12.26z M33.612,17.954
		c-0.783,0-1.423-0.641-1.423-1.423c0-0.783,0.641-1.423,1.423-1.423h22.776c0.783,0,1.423,0.641,1.423,1.423
		c0,0.783-0.641,1.423-1.423,1.423H33.612z M22.224,3.719h5.694c5.463,0,10.285,3.505,12.064,8.541h-3.096
		c-1.637-3.434-5.107-5.694-8.968-5.694h-5.694c-3.861,0-7.331,2.26-8.968,5.694H10.16C11.94,7.225,16.762,3.719,22.224,3.719z
		 M3.719,16.531c0-0.783,0.641-1.423,1.423-1.423h11.388c0.783,0,1.423,0.641,1.423,1.423c0,0.783-0.641,1.423-1.423,1.423H5.143
		C4.36,17.954,3.719,17.313,3.719,16.531z M27.918,29.342h-5.694c-5.463,0-10.285-3.505-12.064-8.541h3.096
		c1.637,3.434,5.107,5.694,8.968,5.694h5.694c3.861,0,7.331-2.26,8.968-5.694h3.096C38.203,25.836,33.381,29.342,27.918,29.342z
		 M67.776,29.342h-5.694c-5.463,0-10.285-3.505-12.064-8.541h3.096c1.637,3.434,5.107,5.694,8.968,5.694h5.694
		c3.861,0,7.331-2.26,8.968-5.694h3.096C78.06,25.836,73.238,29.342,67.776,29.342z M84.857,17.954H73.469
		c-0.783,0-1.423-0.641-1.423-1.423c0-0.783,0.641-1.423,1.423-1.423h11.388c0.783,0,1.423,0.641,1.423,1.423
		C86.281,17.313,85.64,17.954,84.857,17.954z"/>
	<path style="fill:#FFFFFF;" d="M71.957,40.623c1.601,3.327,2.544,6.904,2.829,10.623l2.847-0.214
		c-0.302-4.075-1.352-7.989-3.096-11.637L71.957,40.623z"/>
	<path style="fill:#FFFFFF;" d="M71.957,66.459l2.562,1.228c1.744-3.648,2.794-7.562,3.096-11.637l-2.847-0.214
		C74.519,59.555,73.558,63.131,71.957,66.459z"/>
	<path style="fill:#FFFFFF;" d="M63.505,76.975v-17.74c0-2.331-1.139-4.395-2.883-5.694h0.036V45c0-8.63-7.028-15.658-15.658-15.658
		S29.342,36.37,29.342,45v8.541h0.036c-1.744,1.299-2.883,3.363-2.883,5.694v17.74c-2.367-1.868-4.448-4.057-6.157-6.548
		l-2.349,1.619c2.295,3.345,5.16,6.21,8.505,8.505v1.459c0,3.932,3.185,7.117,7.117,7.117h22.776c3.932,0,7.117-3.185,7.117-7.117
		v-1.459c3.345-2.295,6.21-5.16,8.505-8.505l-2.349-1.619C67.954,72.936,65.872,75.106,63.505,76.975z M32.189,45
		c0-7.064,5.747-12.811,12.811-12.811S57.811,37.936,57.811,45v7.26c-0.463-0.089-0.943-0.142-1.423-0.142h-1.423V45
		c0-5.498-4.466-9.964-9.964-9.964S35.036,39.502,35.036,45v7.117h-1.423c-0.48,0-0.961,0.053-1.423,0.142V45z M52.117,52.117
		H37.883V45c0-3.932,3.185-7.117,7.117-7.117s7.117,3.185,7.117,7.117V52.117z M60.658,82.01c0,2.349-1.922,4.27-4.27,4.27H33.612
		c-2.349,0-4.27-1.922-4.27-4.27V59.235c0-2.349,1.922-4.27,4.27-4.27h22.776c2.349,0,4.27,1.922,4.27,4.27V82.01z"/>
	<path style="fill:#FFFFFF;" d="M15.196,55.836l-2.847,0.214c0.32,4.075,1.37,7.989,3.114,11.637l2.562-1.228
		C16.442,63.131,15.481,59.555,15.196,55.836z"/>
	<path style="fill:#FFFFFF;" d="M18.043,40.623l-2.58-1.228c-1.744,3.648-2.794,7.562-3.096,11.637l2.847,0.214
		C15.481,47.527,16.442,43.95,18.043,40.623z"/>
	<rect x="54.964" y="69.199" style="fill:#FFFFFF;" width="2.847" height="2.847"/>
	<rect x="32.189" y="69.199" style="fill:#FFFFFF;" width="2.847" height="2.847"/>
	<g>
		<path style="fill:#FFFFFF;" d="M40,70.178h13.897l-2.669-2.633h-8.541l1.174-1.139c0.623-0.605,1.601-0.605,2.206,0.018
			l0.249,0.249h4.075l-3.665-3.665c-0.925-0.925-2.42-0.925-3.345,0l-7.224,7.171h2.26H40L40,70.178z"/>
		<path style="fill:#FFFFFF;" d="M43.879,75.035l-1.192-1.192l2.74-2.651h-9.324l2.669,2.651l4.27,4.288
			c1.068,1.068,2.794,1.068,3.861,0l6.957-6.957H49.84l-3.843,3.861C45.409,75.622,44.466,75.622,43.879,75.035z"/>
	</g>
</g>
<g>
</g>
<g>
</g>
<g>
</g>
<g>
</g>
<g>
</g>
<g>
</g>
<g>
</g>
<g>
</g>
<g>
</g>
<g>
</g>
<g>
</g>
<g>
</g>
<g>
</g>
<g>
</g>
<g>
</g>
</svg>
