<?xml version="1.0" encoding="iso-8859-1"?>
<!-- Generator: Adobe Illustrator 23.1.0, SVG Export Plug-In . SVG Version: 6.00 Build 0)  -->
<svg version="1.1" id="Layer_1" xmlns="http://www.w3.org/2000/svg" xmlns:xlink="http://www.w3.org/1999/xlink" x="0px" y="0px"
	 viewBox="0 0 90 90" style="enable-background:new 0 0 90 90;" xml:space="preserve">
<g>
	<g>
		<path style="fill:#FFFFFF;" d="M26.238,41.635h7.476c0.725,0,1.305-0.58,1.305-1.305c0-0.725-0.58-1.305-1.305-1.305h-7.476
			c-0.725,0-1.305,0.58-1.305,1.305C24.934,41.055,25.514,41.635,26.238,41.635L26.238,41.635z"/>
		<path style="fill:#FFFFFF;" d="M26.238,47.951h30.317c0.725,0,1.305-0.58,1.305-1.305s-0.58-1.305-1.305-1.305H26.238
			c-0.725,0-1.305,0.58-1.305,1.305C24.934,47.371,25.514,47.951,26.238,47.951L26.238,47.951z"/>
		<g>
			<g>
				<g>
					<defs>
						<rect id="SVGID_1_" x="2.362" y="0.508" width="85.277" height="88.983"/>
					</defs>
					<clipPath id="SVGID_2_">
						<use xlink:href="#SVGID_1_"  style="overflow:visible;"/>
					</clipPath>
					<path style="clip-path:url(#SVGID_2_);fill:#FFFFFF;" d="M56.555,51.658h-8.076c-0.725,0-1.305,0.58-1.305,1.305
						s0.58,1.305,1.305,1.305h8.076c0.725,0,1.305-0.58,1.305-1.305C57.86,52.258,57.28,51.658,56.555,51.658L56.555,51.658z"/>
				</g>
			</g>
			<g>
				<g>
					<defs>
						<rect id="SVGID_3_" x="2.362" y="0.508" width="85.277" height="88.983"/>
					</defs>
					<clipPath id="SVGID_4_">
						<use xlink:href="#SVGID_3_"  style="overflow:visible;"/>
					</clipPath>
					<path style="clip-path:url(#SVGID_4_);fill:#FFFFFF;" d="M85.816,9.247L68.939,0.819c-0.849-0.435-1.864-0.435-2.713,0
						L49.349,9.247c-1.035,0.518-1.677,1.553-1.677,2.713v2.423H29.365c-0.725,0-1.305,0.58-1.305,1.305
						c0,0.725,0.58,1.305,1.305,1.305h18.306v3.976c0,1.905,0.145,3.707,0.435,5.426H26.238c-0.725,0-1.305,0.58-1.305,1.305
						s0.58,1.305,1.305,1.305h22.427c0.352,1.284,0.766,2.526,1.305,3.707H26.238c-0.725,0-1.305,0.58-1.305,1.305
						s0.58,1.305,1.305,1.305h25.057c0.456,0.787,0.953,1.532,1.512,2.278c0.352,0.476,0.745,0.973,1.139,1.429H38.932
						c-0.725,0-1.305,0.58-1.305,1.305c0,0.725,0.58,1.305,1.305,1.305h17.498c2.464,2.319,5.571,4.597,9.567,7.041
						c0.497,0.311,1.035,0.456,1.595,0.456c0.559,0,1.098-0.145,1.595-0.456c0.124-0.083,0.269-0.166,0.393-0.249v31.642H35.474
						v-2.423c0-0.725-0.58-1.305-1.305-1.305s-1.305,0.58-1.305,1.305v8.78c0,0.249-0.186,0.435-0.435,0.435H5.551
						c-0.248,0-0.435-0.186-0.435-0.435V67.644c0-0.249,0.186-0.435,0.435-0.435H32.43c0.248,0,0.435,0.186,0.435,0.435v3.914
						c0,0.725,0.58,1.305,1.305,1.305s1.305-0.58,1.305-1.305v-3.914c0-0.269-0.041-0.518-0.104-0.766h21.185
						c0.725,0,1.305-0.58,1.305-1.305c0-0.725-0.58-1.305-1.305-1.305H31.291v-3.707h25.285c0.725,0,1.305-0.58,1.305-1.305
						s-0.58-1.305-1.305-1.305H31.229c-0.124-1.305-0.435-2.547-0.953-3.707h13.502c0.725,0,1.305-0.58,1.305-1.305
						s-0.58-1.305-1.305-1.305H28.744c-2.257-2.941-5.798-4.846-9.774-4.846c-2.071,0-4.038,0.518-5.757,1.429V17.013h10.044
						c0.725,0,1.305-0.58,1.305-1.305c0-0.725-0.58-1.305-1.305-1.305H12.778c-1.201,0-2.174,0.973-2.174,2.174v33.547
						c-2.423,2.236-3.935,5.446-3.935,9.008v5.508H5.53c-1.677,0-3.044,1.367-3.044,3.044v18.782c0,1.677,1.367,3.044,3.044,3.044
						h26.879c1.677,0,3.044-1.367,3.044-3.044V82.72h34.541c1.201,0,2.174-0.973,2.174-2.174V46.791
						c4.639-3.106,7.848-6.005,10.209-9.174c3.438-4.639,5.115-10.085,5.115-16.629v-9.008C87.493,10.821,86.851,9.765,85.816,9.247
						L85.816,9.247z M23.463,64.621h-8.946v-5.508c0-2.464,2.009-4.473,4.473-4.473s4.473,2.009,4.473,4.473L23.463,64.621
						L23.463,64.621z M9.299,59.113c0-5.343,4.349-9.691,9.691-9.691s9.691,4.349,9.691,9.691v5.508h-2.609v-5.508
						c0-3.914-3.168-7.082-7.082-7.082s-7.082,3.168-7.082,7.082v5.508H9.299V59.113z M84.884,20.968
						c0,12.528-6.523,19.031-17.084,25.492c-0.145,0.083-0.311,0.083-0.456,0C56.804,40.02,50.26,33.497,50.26,20.968v-8.987
						c0-0.166,0.083-0.311,0.249-0.393l16.877-8.428c0.124-0.062,0.269-0.062,0.393,0l16.877,8.428
						c0.145,0.083,0.249,0.228,0.249,0.393L84.884,20.968L84.884,20.968z"/>
				</g>
			</g>
		</g>
		<path style="fill:#FFFFFF;" d="M67.51,9.558c-7.269,0-13.191,5.923-13.191,13.191S60.241,35.94,67.51,35.94
			c5.571,0,10.561-3.52,12.425-8.76c0.249-0.683-0.104-1.429-0.787-1.657c-0.683-0.248-1.429,0.104-1.657,0.787
			c-1.491,4.204-5.508,7.02-9.961,7.02c-5.84,0-10.582-4.742-10.582-10.582s4.742-10.582,10.582-10.582
			c5.136,0,9.526,3.665,10.416,8.718c0.124,0.704,0.808,1.18,1.512,1.056c0.704-0.124,1.18-0.808,1.056-1.512
			C79.376,14.134,73.909,9.558,67.51,9.558L67.51,9.558z"/>
		<path style="fill:#FFFFFF;" d="M72.024,19.187l-5.136,5.136l-2.982-2.982c-0.518-0.518-1.325-0.518-1.843,0
			c-0.518,0.518-0.518,1.325,0,1.843l3.914,3.914c0.248,0.248,0.58,0.373,0.911,0.373c0.352,0,0.683-0.145,0.932-0.373l6.047-6.047
			c0.518-0.518,0.518-1.325,0-1.843C73.37,18.669,72.542,18.669,72.024,19.187L72.024,19.187z"/>
	</g>
	<g>
		<path style="fill:#FFFFFF;" d="M14.124,76.756h12.818l-2.464-2.423h-7.89l1.077-1.056c0.559-0.559,1.47-0.559,2.05,0.021
			l0.228,0.228h3.769l-3.375-3.375c-0.849-0.849-2.236-0.849-3.086,0l-6.668,6.606h2.092H14.124z"/>
		<path style="fill:#FFFFFF;" d="M17.707,81.25l-1.098-1.098l2.506-2.444h-8.594l2.464,2.444l3.935,3.955
			c0.973,0.973,2.568,0.994,3.562,0l6.399-6.399h-3.707l-3.541,3.562C19.115,81.788,18.245,81.788,17.707,81.25z"/>
	</g>
</g>
<g>
</g>
<g>
</g>
<g>
</g>
<g>
</g>
<g>
</g>
<g>
</g>
<g>
</g>
<g>
</g>
<g>
</g>
<g>
</g>
<g>
</g>
<g>
</g>
<g>
</g>
<g>
</g>
<g>
</g>
</svg>
