<?xml version="1.0" encoding="iso-8859-1"?>
<!-- Generator: Adobe Illustrator 23.1.0, SVG Export Plug-In . SVG Version: 6.00 Build 0)  -->
<svg version="1.1" id="Layer_1" xmlns="http://www.w3.org/2000/svg" xmlns:xlink="http://www.w3.org/1999/xlink" x="0px" y="0px"
	 viewBox="0 0 90 90" style="enable-background:new 0 0 90 90;" xml:space="preserve">
<g>
	<g transform="translate(0 -1)">
		<path style="fill:#FFFFFF;" d="M81.67,15.192H43.272C42.189,9.305,37.917,4.5,32.201,2.715S20.237,2.488,16.002,6.722
			c-2.336,2.298-3.874,5.26-4.463,8.47H8.33c-4.045,0-7.33,3.285-7.33,7.33v48.406c0,4.045,3.285,7.33,7.33,7.33h23.472v2.943
			H21.528c-0.38,0-0.76,0.152-1.044,0.437c-0.266,0.266-0.437,0.646-0.437,1.044v5.849c0,0.38,0.152,0.76,0.437,1.044
			c0.266,0.266,0.646,0.437,1.044,0.437h46.943c0.38,0,0.76-0.152,1.044-0.437c0.266-0.266,0.437-0.646,0.437-1.044v-5.868
			c0-0.38-0.152-0.76-0.437-1.044c-0.266-0.266-0.646-0.437-1.044-0.437H58.198v-2.905H81.67c4.045,0,7.33-3.285,7.33-7.33V22.522
			C89,18.477,85.715,15.192,81.67,15.192z M18.072,8.792c3.342-3.342,8.204-4.653,12.761-3.418s8.128,4.785,9.343,9.343
			s-0.095,9.419-3.437,12.761c-0.342,0.323-0.703,0.646-1.082,0.931H19.155c-0.38-0.285-0.741-0.608-1.082-0.931
			c-2.488-2.469-3.874-5.83-3.874-9.343C14.198,14.622,15.584,11.261,18.072,8.792L18.072,8.792z M8.33,18.116h2.943
			c-0.019,3.741,1.291,7.387,3.703,10.274h-2.241c-0.817,0-1.462,0.665-1.462,1.462s0.665,1.462,1.462,1.462h29.34
			c0.817,0,1.462-0.665,1.462-1.462s-0.665-1.462-1.462-1.462h-2.222c2.393-2.886,3.703-6.514,3.703-10.274h38.132
			c2.431,0,4.406,1.975,4.406,4.406v41.076H3.924V22.522C3.924,20.091,5.899,18.135,8.33,18.116z M67.009,87.069H22.991v-2.943h44
			v2.943H67.009z M55.274,81.201H34.726v-2.924h20.528v2.924H55.274z M81.67,75.333H8.33c-2.431,0-4.406-1.975-4.406-4.406v-4.406
			h82.151v4.406C86.076,73.359,84.101,75.333,81.67,75.333z"/>
		<path style="fill:#FFFFFF;" d="M49.406,54.805c-0.817,0-1.462,0.665-1.462,1.462s0.665,1.462,1.462,1.462h29.34
			c0.817,0,1.462-0.665,1.462-1.462s-0.665-1.462-1.462-1.462h-2.222c5.431-6.571,4.804-16.218-1.405-22.047
			c-6.21-5.83-15.876-5.83-22.085,0s-6.817,15.477-1.405,22.047H49.406z M54.742,53.856c-3.779-3.779-4.918-9.457-2.868-14.394
			s6.855-8.147,12.211-8.147s10.16,3.228,12.211,8.166s0.912,10.615-2.868,14.394c-0.342,0.323-0.703,0.646-1.082,0.931H55.824
			C55.445,54.501,55.084,54.198,54.742,53.856z"/>
		<path style="fill:#FFFFFF;" d="M12.736,40.126h4.406c0.817,0,1.462-0.665,1.462-1.462c0-0.798-0.665-1.462-1.462-1.462h-4.406
			c-0.817,0-1.462,0.665-1.462,1.462C11.255,39.48,11.919,40.126,12.736,40.126z"/>
		<path style="fill:#FFFFFF;" d="M12.736,45.994h13.198c0.817,0,1.462-0.665,1.462-1.462c0-0.798-0.665-1.462-1.462-1.462H12.736
			c-0.817,0-1.462,0.665-1.462,1.462C11.274,45.329,11.919,45.994,12.736,45.994z"/>
		<path style="fill:#FFFFFF;" d="M22.991,40.126h4.406c0.817,0,1.462-0.665,1.462-1.462c0-0.798-0.665-1.462-1.462-1.462h-4.406
			c-0.817,0-1.462,0.665-1.462,1.462C21.528,39.48,22.193,40.126,22.991,40.126z"/>
		<path style="fill:#FFFFFF;" d="M33.264,40.126h4.406c0.817,0,1.462-0.665,1.462-1.462c0-0.798-0.665-1.462-1.462-1.462h-4.406
			c-0.817,0-1.462,0.665-1.462,1.462C31.802,39.48,32.448,40.126,33.264,40.126z"/>
		<path style="fill:#FFFFFF;" d="M31.802,45.994h5.868c0.817,0,1.462-0.665,1.462-1.462c0-0.798-0.665-1.462-1.462-1.462h-5.868
			c-0.817,0-1.462,0.665-1.462,1.462C30.34,45.329,30.985,45.994,31.802,45.994z"/>
		<path style="fill:#FFFFFF;" d="M15.66,57.73h19.066c2.431,0,4.406-1.975,4.406-4.406s-1.975-4.406-4.406-4.406H15.66
			c-2.431,0-4.406,1.975-4.406,4.406S13.23,57.73,15.66,57.73z M15.66,51.862h19.066c0.817,0,1.462,0.665,1.462,1.462
			c0,0.798-0.665,1.462-1.462,1.462H15.66c-0.817,0-1.462-0.665-1.462-1.462C14.198,52.526,14.844,51.862,15.66,51.862z"/>
	</g>
	<g>
		<path style="fill:#FFFFFF;" d="M59.053,43.076H73.01l-2.697-2.621H61.73l1.177-1.139c0.627-0.608,1.614-0.608,2.222,0.019
			l0.247,0.247h4.083l-3.665-3.665c-0.931-0.931-2.431-0.931-3.361,0l-7.254,7.197h2.279L59.053,43.076L59.053,43.076z"/>
		<path style="fill:#FFFFFF;" d="M62.965,47.956l-1.196-1.196l2.735-2.659H55.16l2.678,2.659l4.292,4.292
			c1.063,1.063,2.811,1.063,3.874,0l6.969-6.969h-4.045l-3.855,3.874C64.484,48.545,63.534,48.545,62.965,47.956z"/>
	</g>
	<g>
		<path style="fill:#FFFFFF;" d="M20.788,16.661h13.958l-2.697-2.621h-8.584l1.177-1.139c0.627-0.608,1.614-0.608,2.222,0.019
			l0.247,0.247h4.083l-3.665-3.684c-0.931-0.931-2.431-0.931-3.361,0l-7.254,7.197h2.279L20.788,16.661L20.788,16.661z"/>
		<path style="fill:#FFFFFF;" d="M24.681,21.56l-1.196-1.196l2.735-2.659h-9.343l2.678,2.659l4.292,4.292
			c1.063,1.063,2.811,1.063,3.874,0l6.969-6.969h-4.045l-3.855,3.874C26.219,22.13,25.269,22.13,24.681,21.56z"/>
	</g>
</g>
<g>
</g>
<g>
</g>
<g>
</g>
<g>
</g>
<g>
</g>
<g>
</g>
<g>
</g>
<g>
</g>
<g>
</g>
<g>
</g>
<g>
</g>
<g>
</g>
<g>
</g>
<g>
</g>
<g>
</g>
</svg>
