<?xml version="1.0" encoding="iso-8859-1"?>
<!-- Generator: Adobe Illustrator 23.1.0, SVG Export Plug-In . SVG Version: 6.00 Build 0)  -->
<svg version="1.1" id="Layer_1" xmlns="http://www.w3.org/2000/svg" xmlns:xlink="http://www.w3.org/1999/xlink" x="0px" y="0px"
	 viewBox="0 0 90 90" style="enable-background:new 0 0 90 90;" xml:space="preserve">
<g>
	<g>
		<g>
			<g>
				<g>
					<defs>
						<rect id="SVGID_1_" x="1.112" y="21" width="87.776" height="48"/>
					</defs>
					<clipPath id="SVGID_2_">
						<use xlink:href="#SVGID_1_"  style="overflow:visible;"/>
					</clipPath>
					<path style="clip-path:url(#SVGID_2_);fill:#FFFFFF;" d="M87.178,34.72h-25.71c-0.942,0-1.71,0.769-1.71,1.71v1.71H40.6
						c-0.634,0-1.249,0.115-1.806,0.327C38.082,28.705,29.916,21,19.982,21c-10.396,0-18.85,8.455-18.85,18.85
						c0,8.512,5.669,15.718,13.432,18.062c-2.767,2.21-4.535,5.592-4.535,9.377c0,0.942,0.769,1.71,1.71,1.71h31.456
						c2.287,0,4.439-0.884,6.053-2.517l7.782-7.782h2.709v1.71c0,0.942,0.769,1.71,1.71,1.71h25.71c0.942,0,1.71-0.769,1.71-1.71
						V36.43C88.888,35.488,88.119,34.72,87.178,34.72L87.178,34.72z M19.962,55.28c-8.512,0-15.43-6.918-15.43-15.43
						s6.918-15.43,15.43-15.43s15.43,6.918,15.43,15.43c0,0.48-0.019,0.942-0.058,1.422l-7.667,7.667
						c-1.71,1.71-2.287,4.17-1.691,6.36h-3.958c-0.5,0-0.999,0.038-1.499,0.096C20.347,55.319,20.174,55.28,19.962,55.28
						L19.962,55.28z M56.318,55.28c-0.461,0-0.884,0.173-1.211,0.5l-8.282,8.282c-0.98,0.98-2.267,1.499-3.632,1.499H13.621
						c0.788-3.901,4.266-6.86,8.397-6.86h6.207c1.191,0.942,2.633,1.422,4.074,1.422c1.672,0,3.363-0.634,4.65-1.922l6.86-6.86
						c0.673-0.673,0.673-1.749,0-2.421s-1.749-0.673-2.421,0l-6.86,6.86c-0.596,0.596-1.384,0.922-2.21,0.922
						c-0.845,0-1.633-0.327-2.21-0.922c-1.23-1.23-1.23-3.209,0-4.439l9.281-9.281c0.327-0.327,0.749-0.5,1.211-0.5h19.158v13.72
						L56.318,55.28L56.318,55.28z M63.178,38.14h5.15v20.58h-5.15V38.14z M85.468,58.72h-13.72V38.14h13.72V58.72z"/>
				</g>
			</g>
		</g>
	</g>
	<g>
		<path style="fill:#FFFFFF;" d="M14.39,39.735h15.584l-2.998-2.94h-9.588l1.307-1.287c0.692-0.673,1.806-0.673,2.479,0.019
			l0.288,0.288h4.573l-4.112-4.112c-1.038-1.038-2.709-1.038-3.747,0l-8.109,8.032h2.556L14.39,39.735L14.39,39.735z"/>
		<path style="fill:#FFFFFF;" d="M18.752,45.192l-1.345-1.345l3.055-2.978H10.028l2.978,2.978l4.804,4.804
			c1.191,1.191,3.132,1.191,4.323,0l7.801-7.801H25.42l-4.304,4.343C20.462,45.845,19.405,45.845,18.752,45.192z"/>
	</g>
</g>
<g>
</g>
<g>
</g>
<g>
</g>
<g>
</g>
<g>
</g>
<g>
</g>
<g>
</g>
<g>
</g>
<g>
</g>
<g>
</g>
<g>
</g>
<g>
</g>
<g>
</g>
<g>
</g>
<g>
</g>
</svg>
