<svg xmlns="http://www.w3.org/2000/svg" width="1133.858" height="403.937" viewBox="0 0 1133.858 403.937">
  <rect id="矩形_1" data-name="矩形 1" width="1133.858" height="403.937" fill="#0b172f"/>
  <g id="组_3" data-name="组 3" transform="translate(-305.437 -189.469)">
    <path id="路径_1" data-name="路径 1" d="M729.558,374.023A74.955,74.955,0,0,0,664.9,261.134H524.386V503.742H678.378a74.949,74.949,0,0,0,51.18-129.719Zm-43.6,48.85v26.956h-86.6a21.03,21.03,0,0,1-15.8-34.929l-.015-.012L644.689,342H583.547V315.047H664.9a21.051,21.051,0,0,1,16.268,34.414l0,.005c-.016.02-.032.039-.049.058l-61.546,73.349Z" fill="#fff"/>
    <g id="组_2" data-name="组 2">
      <path id="路径_2" data-name="路径 2" d="M822.25,434.992H807.257v29.986H907.389a39.686,39.686,0,0,0,12.016-77.508,37.482,37.482,0,0,0-13.567-72.423c-.115,0-.226.008-.34.009v-.009H807.257v29.986H822.25Zm37.576-59.973V345.033h27.267a14.993,14.993,0,0,1,0,29.986Zm-.093,59.973V405.006h31.108a14.993,14.993,0,0,1,0,29.986Z" fill="#fff"/>
      <rect id="矩形_2" data-name="矩形 2" width="37.483" height="104.952" transform="translate(961.905 360.026)" fill="#fff"/>
      <rect id="矩形_3" data-name="矩形 3" width="37.483" height="29.986" transform="translate(961.905 315.047)" fill="#fff"/>
      <path id="路径_3" data-name="路径 3" d="M1066.857,434.992a11.245,11.245,0,0,1-11.245-11.245V375.019H1085.6V345.033h-29.986V307.551l-37.483,37.482v89.959a29.987,29.987,0,0,0,29.987,29.987H1085.6V434.992Z" fill="#fff"/>
      <g id="组_1" data-name="组 1">
        <path id="路径_4" data-name="路径 4" d="M1215.019,353.335l.005-.005a23.419,23.419,0,0,0-18.1-38.283h-90.5v29.987h68.015l-68.031,81.076.016.014a23.394,23.394,0,0,0,17.582,38.855h96.335V434.993H1146.5l68.464-81.593Z" fill="#fff"/>
      </g>
    </g>
  </g>
</svg>
