<svg xmlns="http://www.w3.org/2000/svg" width="341.1" height="195.2" viewBox="0 0 341.1 195.2">
  <g id="logo_black" transform="translate(-10 -82.8)">
    <path id="路径_7992" data-name="路径 7992" d="M295.1,194.8a55.355,55.355,0,0,1-39.4-16.4,58.028,58.028,0,0,1-11.9-17.7,57.157,57.157,0,0,1,0-43.5,57.3,57.3,0,0,1,11.9-17.8,56.574,56.574,0,0,1,17.7-12A54.3,54.3,0,0,1,295.1,83a57.147,57.147,0,0,1,15,2,54.236,54.236,0,0,1,13.3,5.6,55.405,55.405,0,0,1,25.7,33.3,56.4,56.4,0,0,1,2,14.9,54.3,54.3,0,0,1-4.4,21.7,57.121,57.121,0,0,1-12,17.7,55.885,55.885,0,0,1-17.8,12A50.2,50.2,0,0,1,295.1,194.8Zm.1-18.6a37.3,37.3,0,0,0,14.6-2.9,38.193,38.193,0,0,0,11.8-7.9,39.252,39.252,0,0,0,8-11.7,35.12,35.12,0,0,0,2.9-14.5,37,37,0,0,0-22.7-34.1,37.95,37.95,0,0,0-29.1,0A36.606,36.606,0,0,0,269,113a38.949,38.949,0,0,0-7.9,11.7,37.044,37.044,0,0,0,7.9,40.7,36.69,36.69,0,0,0,26.2,10.8Z"/>
    <path id="路径_7993" data-name="路径 7993" d="M206.6,194.8l-36.5-83.9-36.4,83.9H109.3L158,82.8h24.4l48.6,112Z"/>
    <path id="路径_7994" data-name="路径 7994" d="M57.2,268.6V278H25.7C15.2,278,10,272.8,10,262.3V246.6c0-10.5,5.2-15.7,15.7-15.7H57.2v9.4H27c-5.1,0-7.6,2.5-7.6,7.6V261c0,5.1,2.5,7.6,7.6,7.6Z"/>
    <path id="路径_7995" data-name="路径 7995" d="M78.5,268.6,74.4,278H64.1l20.5-47.2H94.9L115.4,278H105.1l-4.1-9.4Zm18.4-9.5-7.1-16.5-7.1,16.5Z"/>
    <path id="路径_7996" data-name="路径 7996" d="M131.7,278h-9.4V230.8h31.5c10.5,0,15.7,4.7,15.7,14.2s-5.2,14.2-15.7,14.2h-22l-.1,18.8Zm20.4-28.3c5.2,0,7.9-1.6,7.9-4.7s-2.6-4.7-7.9-4.7H131.6v9.4Z"/>
    <path id="路径_7997" data-name="路径 7997" d="M189.4,278H180V230.8h9.4Z"/>
    <path id="路径_7998" data-name="路径 7998" d="M218.7,240.2H199.8v-9.4H247v9.4H228.1V278h-9.4V240.2Z"/>
    <path id="路径_7999" data-name="路径 7999" d="M262.7,268.6l-4.1,9.4H248.3l20.5-47.2h10.3L299.6,278H289.3l-4.1-9.4Zm18.4-9.5L274,242.6l-7.1,16.5Z"/>
    <path id="路径_8000" data-name="路径 8000" d="M350.6,268.6V278H306.4V230.8h9.4v37.8Z"/>
    <path id="路径_8001" data-name="路径 8001" d="M102,124.5a53.969,53.969,0,0,0-5.6-13.7,52.6,52.6,0,0,0-8.7-11.2A55.338,55.338,0,0,0,76.4,91a55.914,55.914,0,0,0-13.3-5.6,54.91,54.91,0,0,0-14.7-2H10V103H48.9a33.922,33.922,0,0,1,13.9,2.9A34.451,34.451,0,0,1,74,113.8a35.467,35.467,0,0,1,7.5,11.9,38.906,38.906,0,0,1,2.7,14.2A35.39,35.39,0,0,1,74,164.8a36.655,36.655,0,0,1-11.2,7.7,34.268,34.268,0,0,1-13.9,2.9H10V195H48.4a54.91,54.91,0,0,0,14.7-2,57.7,57.7,0,0,0,13.3-5.6,59.17,59.17,0,0,0,11.3-8.6A55.057,55.057,0,0,0,104,139.7,59.826,59.826,0,0,0,102,124.5Z"/>
    <path id="路径_8002" data-name="路径 8002" d="M176,211a7.026,7.026,0,0,1,1,4H350v-4Z"/>
    <path id="路径_8003" data-name="路径 8003" d="M165.2,211H10v4H164.2A7.924,7.924,0,0,1,165.2,211Z"/>
    <path id="路径_8004" data-name="路径 8004" d="M165.7,215l4.5-10.3,4.5,10.3h5.1l-7.1-16.2h-5.1l-7,16.2Z"/>
  </g>
</svg>
