<svg id="Home" xmlns="http://www.w3.org/2000/svg" width="118" height="28" viewBox="0 0 118 28">
  <g id="主页英文" transform="translate(-43 -16)">
    <g id="Logo" transform="translate(43 16)">
      <path id="Fill-1" d="M96.818,21.877a1.086,1.086,0,0,1-.3.412,1.377,1.377,0,0,1-.5.274,2.289,2.289,0,0,1-.722.1H93.681V20.11h1.577a1.974,1.974,0,0,1,1.245.328,1.11,1.11,0,0,1,.415.919,1.333,1.333,0,0,1-.1.519Zm.632-1.229a1.445,1.445,0,0,0-.425-.545,2.184,2.184,0,0,0-.708-.347,3.506,3.506,0,0,0-.985-.125H93.017v5.827h.664V23.134h1.712a2.884,2.884,0,0,0,.964-.145,2.056,2.056,0,0,0,.69-.393,1.551,1.551,0,0,0,.412-.563,1.77,1.77,0,0,0,.137-.679,1.7,1.7,0,0,0-.145-.706ZM82.289,25.405a2.494,2.494,0,0,0,.846-.415,1.973,1.973,0,0,0,.571-.7,2.245,2.245,0,0,0,.207-1V19.631h-.666v3.637a1.761,1.761,0,0,1-.168.794,1.568,1.568,0,0,1-.443.555,1.844,1.844,0,0,1-.631.321,2.475,2.475,0,0,1-.737.106,2.549,2.549,0,0,1-.733-.1,1.651,1.651,0,0,1-.6-.311,1.394,1.394,0,0,1-.4-.534,1.876,1.876,0,0,1-.145-.78V19.631h-.673v3.743a2.226,2.226,0,0,0,.2.977,1.865,1.865,0,0,0,.536.672,2.316,2.316,0,0,0,.8.392,3.756,3.756,0,0,0,.995.128,3.839,3.839,0,0,0,1.041-.138ZM69.1,23.53a2.123,2.123,0,0,1-.435.8,1.928,1.928,0,0,1-.74.523,2.787,2.787,0,0,1-1.074.188,2.7,2.7,0,0,1-1.032-.183,2.1,2.1,0,0,1-.751-.525,2.261,2.261,0,0,1-.461-.8,3.19,3.19,0,0,1-.155-1.019A3.236,3.236,0,0,1,64.6,21.5a2.079,2.079,0,0,1,.451-.781,2.055,2.055,0,0,1,.751-.5,2.838,2.838,0,0,1,1.045-.176,2.783,2.783,0,0,1,1.031.176,2.079,2.079,0,0,1,.752.5,2.118,2.118,0,0,1,.455.781,3.237,3.237,0,0,1,.15,1.017A3.423,3.423,0,0,1,69.1,23.53Zm.631-2.238a2.545,2.545,0,0,0-.6-.934,2.675,2.675,0,0,0-.969-.6,4.242,4.242,0,0,0-2.634,0,2.683,2.683,0,0,0-.963.6,2.53,2.53,0,0,0-.593.936,3.549,3.549,0,0,0-.2,1.232,3.692,3.692,0,0,0,.192,1.213,2.6,2.6,0,0,0,.581.958,2.649,2.649,0,0,0,.961.629,3.716,3.716,0,0,0,1.342.226,3.626,3.626,0,0,0,1.3-.22,2.741,2.741,0,0,0,.969-.613,2.616,2.616,0,0,0,.608-.954,3.8,3.8,0,0,0,.009-2.464Zm-15.293.459a1.035,1.035,0,0,1-.287.386,1.459,1.459,0,0,1-.5.262,2.581,2.581,0,0,1-.723.1H51.3V20.11h1.595a2.8,2.8,0,0,1,.683.073,1.5,1.5,0,0,1,.516.223,1,1,0,0,1,.33.363,1.064,1.064,0,0,1,.112.5,1.171,1.171,0,0,1-.1.482Zm1,3.707-1.9-2.573a2.456,2.456,0,0,0,.765-.216,1.587,1.587,0,0,0,.521-.376,1.517,1.517,0,0,0,.3-.486,1.643,1.643,0,0,0,.094-.538,1.528,1.528,0,0,0-.151-.7,1.429,1.429,0,0,0-.449-.508,2.072,2.072,0,0,0-.708-.32,3.7,3.7,0,0,0-.952-.114H50.633v5.827H51.3v-2.5h1.563l1.779,2.5Zm-15.539.008a3.833,3.833,0,0,0,.719-.215,2.848,2.848,0,0,0,.593-.308,3.474,3.474,0,0,0,.461-.374V22.617H39.078v.467h1.964V24.34a1.93,1.93,0,0,1-.311.25,2.747,2.747,0,0,1-.441.226,3.321,3.321,0,0,1-.561.165,3.365,3.365,0,0,1-.683.063,2.616,2.616,0,0,1-1.017-.183,1.943,1.943,0,0,1-.729-.525,2.248,2.248,0,0,1-.436-.8,3.359,3.359,0,0,1-.146-1.019,3.7,3.7,0,0,1,.132-1.017,2.073,2.073,0,0,1,.413-.781,1.863,1.863,0,0,1,.711-.5A2.7,2.7,0,0,1,39,20.044a2.83,2.83,0,0,1,.706.08,1.986,1.986,0,0,1,.541.218,1.83,1.83,0,0,1,.4.319,2.113,2.113,0,0,1,.276.379l.6-.188a2.927,2.927,0,0,0-.342-.484,2.125,2.125,0,0,0-.507-.416,2.731,2.731,0,0,0-.717-.3,4.2,4.2,0,0,0-2.261.1,2.522,2.522,0,0,0-.923.6,2.479,2.479,0,0,0-.554.936,3.97,3.97,0,0,0-.182,1.232,3.912,3.912,0,0,0,.182,1.213,2.605,2.605,0,0,0,.556.958,2.549,2.549,0,0,0,.939.629,3.622,3.622,0,0,0,1.33.226,4.563,4.563,0,0,0,.847-.077Zm72.555-14.353a.336.336,0,0,1-.326-.343V3.582a.335.335,0,0,0-.326-.346H110.27a.336.336,0,0,0-.326.346v9.107a.337.337,0,0,0,.326.347h7.4a.337.337,0,0,0,.326-.347V11.459a.337.337,0,0,0-.326-.347ZM103.56,5.554a.433.433,0,0,0-.4-.339h-1.726a.419.419,0,0,0-.387.339L100.808,6.9a.269.269,0,0,0,.266.336h2.5a.263.263,0,0,0,.259-.336Zm1.258-2.317a.435.435,0,0,1,.4.338l1.885,9.182a.262.262,0,0,1-.258.337h-1.417a.434.434,0,0,1-.4-.337l-.687-3.21a.434.434,0,0,0-.4-.333h-3.218a.424.424,0,0,0-.39.336l-.638,3.208a.425.425,0,0,1-.392.337h-1.42a.264.264,0,0,1-.259-.337l1.825-9.182a.429.429,0,0,1,.4-.338ZM87.493,4.756a.334.334,0,0,0,.324.344h2.729a.338.338,0,0,1,.326.346v7.243a.337.337,0,0,0,.326.347h1.407a.337.337,0,0,0,.326-.347V5.446A.337.337,0,0,1,93.26,5.1h2.731a.336.336,0,0,0,.327-.344V3.582a.336.336,0,0,0-.327-.346H87.817a.335.335,0,0,0-.324.346Zm-4.848,7.932a.337.337,0,0,0,.326.347H84.5a.336.336,0,0,0,.324-.347V3.582a.335.335,0,0,0-.324-.346H82.971a.336.336,0,0,0-.326.346Zm-9.523-7.53A.336.336,0,0,0,72.8,5.5V7.174a.337.337,0,0,0,.326.346h3.759a.338.338,0,0,0,.327-.346V5.5a.337.337,0,0,0-.327-.346ZM70.676,3.582A.336.336,0,0,1,71,3.236h8a.337.337,0,0,1,.329.346V9.1A.337.337,0,0,1,79,9.439H73.122a.337.337,0,0,0-.326.347v2.9a.337.337,0,0,1-.326.347H71a.337.337,0,0,1-.326-.347ZM63.574,7.1a.2.2,0,0,1-.362,0l-2.22-3.574a.672.672,0,0,0-.5-.287h-1.7c-.179,0-.246.13-.145.287L62.149,9.11a1.41,1.41,0,0,1,.179.633v2.946a.338.338,0,0,0,.326.347h1.466a.339.339,0,0,0,.329-.347v-3a1.365,1.365,0,0,1,.184-.629L68.2,3.524c.1-.157.039-.287-.141-.287H66.352a.685.685,0,0,0-.509.287ZM49.3,5.159a.337.337,0,0,0-.327.346V6.887a.336.336,0,0,0,.327.343h3.935a.336.336,0,0,0,.33-.343V5.5a.337.337,0,0,0-.33-.346Zm4.5,3.994c-.181,0-.238.129-.132.278l2.343,3.327c.108.154.049.276-.131.276H54.037a.712.712,0,0,1-.521-.276L51.172,9.431a.725.725,0,0,0-.52-.278H49.3a.34.34,0,0,0-.327.347v3.189a.337.337,0,0,1-.325.347H47.183a.337.337,0,0,1-.324-.347V3.582a.336.336,0,0,1,.324-.346H55.3a.34.34,0,0,1,.329.346V8.81a.34.34,0,0,1-.329.343ZM43.88,3.507c.112-.146.055-.271-.123-.271H41.9a.748.748,0,0,0-.53.271L38.924,6.736a.762.762,0,0,1-.53.266h-.763a.335.335,0,0,1-.326-.343V3.582a.336.336,0,0,0-.325-.346H35.571a.336.336,0,0,0-.326.346v9.107a.337.337,0,0,0,.326.347H36.98a.337.337,0,0,0,.325-.347V9.274a.339.339,0,0,1,.326-.348h.645a.764.764,0,0,1,.535.267L41.6,12.772a.785.785,0,0,0,.534.263H44c.179,0,.234-.121.124-.271l-3.385-4.5a.479.479,0,0,1,0-.542ZM15.39,15.369h0a2.134,2.134,0,0,1-.059-2.66l.059-.078L24.653.648c.26-.335.122-.611-.306-.611H18.115a1.876,1.876,0,0,0-1.271.6L10.509,8.246a1.866,1.866,0,0,1-1.268.593H.776A.77.77,0,0,0,0,9.6v.359a.774.774,0,0,0,.776.765h9.376a1.886,1.886,0,0,0,1.271-.592l6.334-7.613a1.878,1.878,0,0,1,1.269-.593h1.452c.427,0,.566.274.308.608l-7.667,9.915a1.774,1.774,0,0,1-1.248.606H.776A.773.773,0,0,0,0,13.819v.361a.772.772,0,0,0,.776.763H11.871a1.783,1.783,0,0,1,1.248.607l7.667,9.916c.258.332.119.606-.308.606H19.025a1.881,1.881,0,0,1-1.269-.592l-6.334-7.614a1.879,1.879,0,0,0-1.271-.59H.776A.773.773,0,0,0,0,18.04V18.4a.772.772,0,0,0,.776.763H9.24a1.869,1.869,0,0,1,1.268.592l6.336,7.614a1.884,1.884,0,0,0,1.271.59h6.232c.428,0,.566-.274.306-.606ZM9.226,22.28a1.791,1.791,0,0,0-1.251-.605H.776A.772.772,0,0,0,0,22.439v4.668a.77.77,0,0,0,.776.76H5.029a.771.771,0,0,0,.778-.76v-.359a.774.774,0,0,0-.778-.766H2.7a.771.771,0,0,1-.777-.763v-.9A.772.772,0,0,1,2.7,23.56H7.025a1.78,1.78,0,0,1,1.25.607L11.034,27.7a.792.792,0,0,0,1.09.143l.29-.221a.754.754,0,0,0,.145-1.07ZM0,5.559V.895A.771.771,0,0,1,.776.131H5.029a.771.771,0,0,1,.778.764v.359a.773.773,0,0,1-.778.763H2.7a.773.773,0,0,0-.777.764v.895A.773.773,0,0,0,2.7,4.44H7.025a1.793,1.793,0,0,0,1.25-.607L11.034.3a.789.789,0,0,1,1.09-.143l.29.216a.757.757,0,0,1,.145,1.072L9.226,5.717a1.791,1.791,0,0,1-1.251.605H.776A.77.77,0,0,1,0,5.559Z" fill-rule="evenodd"/>
    </g>
  </g>
</svg>
