<svg xmlns="http://www.w3.org/2000/svg" width="783" height="301.82" viewBox="0 0 783 301.82">
  <g id="LD-_LOGO-svg" data-name="LD- LOGO-svg" transform="translate(-120.56 -360.62)">
    <path id="路径_7978" data-name="路径 7978" d="M495.54,529.39s-.05.96-.23,2.21a104.812,104.812,0,0,1-6.02,20.99,91.448,91.448,0,0,1-11.31,19.91,81.913,81.913,0,0,1-19.14,18.8,128.51,128.51,0,0,1-15.65,9.61A100.331,100.331,0,0,1,422,608.8a111.713,111.713,0,0,1-17.09,2.57c-12.18.98-24.37.65-36.57.47-1.86-.03-3.72-.17-5.57-.36-2.91-.29-3.11-.7-2.03-3.25,3.96,0,7.6.02,11.25,0,6.59-.04,13.21.23,19.77-.26,6.78-.5,13.59-1.03,20.25-2.84a60.513,60.513,0,0,0,26.33-14.56,51.342,51.342,0,0,0,9.94-13.13c2.08-3.92,4.19-7.84,6.11-11.84a77.724,77.724,0,0,0,6.11-18.72c1.01-5.13,1.62-10.34,2.37-15.52.07-.37.18-1.94.18-1.94Z"/>
    <g id="组_2385" data-name="组 2385">
      <g id="_x39_5Lvxl_1_">
        <g id="组_2383" data-name="组 2383">
          <path id="路径_7979" data-name="路径 7979" d="M420.25,499.75c.75.17,1.51.29,2.24.53,2.83.92,4.41,2.99,5.26,5.84a17,17,0,0,1-2.03-.03c-.2-.02-.42-.36-.52-.6a6.155,6.155,0,0,0-8.22-3.28,6.485,6.485,0,0,0-3.35,3.35,10.677,10.677,0,0,0,.62,10.65,5.755,5.755,0,0,0,5.55,2.77,5.914,5.914,0,0,0,5.07-3.67c.27-.56.43-1.16.66-1.79h2.14a9.176,9.176,0,0,1-2.26,4.79,7.585,7.585,0,0,1-4.93,2.54,1.653,1.653,0,0,0-.36.11h-1.68a2.42,2.42,0,0,0-.35-.12,7.581,7.581,0,0,1-5.92-3.68,13.119,13.119,0,0,1-1.24-10.71,8.658,8.658,0,0,1,6.03-6.35c.49-.15.99-.23,1.49-.35Z"/>
          <path id="路径_7980" data-name="路径 7980" d="M540.88,520.31H528.69V500.43h2.1v17.94h10.1C540.88,519.01,540.88,519.66,540.88,520.31Z"/>
          <path id="路径_7981" data-name="路径 7981" d="M449.9,520.31c-.71,0-1.34.03-1.96-.02a.77.77,0,0,1-.49-.43c-.63-1.69-1.25-3.39-1.84-5.09a.675.675,0,0,0-.77-.55c-2.46.02-4.91.02-7.37,0a.7.7,0,0,0-.79.54c-.64,1.85-1.32,3.68-1.98,5.53h-2.33c.47-1.3.92-2.54,1.38-3.79q2.835-7.68,5.65-15.37c.19-.52.39-.82,1.03-.75.74.09,1.67-.19,2.19.17.49.34.56,1.29.81,1.98q3.12,8.535,6.23,17.08C449.73,519.8,449.79,520,449.9,520.31Zm-8.77-17.9c-1.2,3.35-2.35,6.57-3.52,9.85h7.02C443.47,508.99,442.33,505.76,441.13,502.41Z"/>
          <path id="路径_7982" data-name="路径 7982" d="M508.26,520.29h-2.31c.08-.25.14-.46.22-.67q3.435-9.315,6.86-18.63c.17-.46.37-.64.87-.6a16.671,16.671,0,0,0,1.87.01.531.531,0,0,1,.62.4q3.5,9.63,7.01,19.26a1.337,1.337,0,0,1,.02.26c-.67,0-1.33.03-1.99-.02-.15-.01-.35-.27-.42-.45-.62-1.65-1.22-3.3-1.79-4.97-.16-.47-.35-.67-.89-.66-2.41.04-4.83.03-7.24,0a.756.756,0,0,0-.86.63C509.59,516.65,508.92,518.46,508.26,520.29Zm9.95-8.01c-1.17-3.3-2.32-6.51-3.51-9.86-1.2,3.36-2.35,6.58-3.52,9.86Z"/>
          <path id="路径_7983" data-name="路径 7983" d="M457.23,511.77v8.49h-2.12V500.4c.22-.01.42-.04.63-.04,2.37,0,4.74-.01,7.1,0a5.758,5.758,0,0,1,5.84,5.25,5.7,5.7,0,0,1-4.92,6.11,6.633,6.633,0,0,1-1.09.05Zm.03-9.43v7.49a1.706,1.706,0,0,0,.28.04c1.79-.01,3.57.02,5.36-.03a3.841,3.841,0,0,0,3.61-3.7,3.6,3.6,0,0,0-3.4-3.77C461.18,502.26,459.24,502.34,457.26,502.34Z"/>
          <path id="路径_7984" data-name="路径 7984" d="M494.61,520.28h-2.16V502.33h-6.6v-1.91h15.31v1.88h-6.55Z"/>
          <path id="路径_7985" data-name="路径 7985" d="M478.28,520.29h-2.03V500.44h2.03Z"/>
        </g>
      </g>
      <g id="组_2384" data-name="组 2384">
        <path id="路径_7986" data-name="路径 7986" d="M587.35,500.14l28.18-18.59H552.14v-4.46h69.73v5.54l-29.79,19.95v30.35q.525,13.53-12.73,13.25c-2.03.03-3.92.05-5.66.08h-6.74q-.315-2.685-.92-5.42,5.625.315,12.57.32c3.32.03,5.59-.58,6.82-1.81q1.965-1.725,1.93-6.42V500.14Z"/>
        <path id="路径_7987" data-name="路径 7987" d="M643.39,521.17a42.674,42.674,0,0,0-1.97-4.26,106.139,106.139,0,0,0,19.75-26.09l3.85,2.09q-3.45,5.82-7.91,12.16v43.08h-4.17v-37.5A118.229,118.229,0,0,1,643.39,521.17Zm1.72-25.57a28.836,28.836,0,0,0-2.45-3.77,86.062,86.062,0,0,0,19.07-21.04l3.85,2.21A114.834,114.834,0,0,1,645.11,495.6Zm23.13,14.65H717.5v3.77h-9.8v8.07h11.52v3.85H707.7v11.92q.525,9.2-9.27,8.95-5.3.165-10.64.16a27.165,27.165,0,0,0-1.28-4.42c4.07.16,7.65.24,10.76.24,2.41.03,4.03-.32,4.86-1.04.88-.64,1.31-1.91,1.28-3.81v-12H664.79v-3.85h38.62v-8.07H668.24Zm3.61,20.56,3.21-2.73q5.34,5.055,9.11,9.31l-3.45,2.93A111.84,111.84,0,0,0,671.85,530.81Zm.84-56.41h39.94v28.1H672.69Zm4.18,3.7v8.55h31.55V478.1Zm0,12.16v8.55h31.55v-8.55Z"/>
        <path id="路径_7988" data-name="路径 7988" d="M733.99,503.59q9.99-6.825,19.43-14.49a27.22,27.22,0,0,0,2.21,3.97q-9,6.78-18.51,14.45Zm37.02,15.05h4.3a47.777,47.777,0,0,1-.76,8.55c-.05.19-.12.47-.2.84a15.67,15.67,0,0,1-.52,1.93q15.855,5.94,34.28,13.49l-2.41,4.22q-18.675-8.355-33.68-14.09-5.46,9.24-33.4,14.41a47.083,47.083,0,0,0-2.29-4.54q31.83-3.93,34.12-16.94A45.282,45.282,0,0,0,771.01,518.64Zm-20.8-33.88q-6.06-4.98-12.65-9.64l2.85-3.13q5.775,4.02,12.77,9.31Zm-4.22,25.05h53.63v23.36h-4.3V513.7H750.28v19.47h-4.3V509.81Zm12.77-2.77a25.933,25.933,0,0,0-2.65-3.93q24.375-5.46,26.09-21.56H769.27a72.258,72.258,0,0,1-8.39,10.92,27.484,27.484,0,0,0-3.37-2.93,55.3,55.3,0,0,0,12.77-19.35l4.18,1.16q-1.44,3.45-3.05,6.42h36.45v4.01l-4.78,9.88a29.887,29.887,0,0,0-4.14-1.57l4.54-8.55h-17.1c-.16.8-.32,1.57-.48,2.29q5.895,15.735,24.89,19.43-1.32,2.01-2.37,4.01-19.065-5.46-24.09-18.35Q780.6,500.47,758.76,507.04Z"/>
        <path id="路径_7989" data-name="路径 7989" d="M829.61,533.66a37.915,37.915,0,0,0-3.37-3.69,89.369,89.369,0,0,0,32.32-40.79H829.13v-4.09h33.48V470.64h4.34v14.45h33.64v4.09H870.92a84.118,84.118,0,0,0,32.64,39.14,50.707,50.707,0,0,0-3.29,4.05,85.431,85.431,0,0,1-32.8-43.2h-.52v38.58h18.51v4.09H866.95v16.22h-4.34V531.84H843.54v-4.09h19.07V489.17h-.24Q852.65,517.16,829.61,533.66Z"/>
      </g>
      <path id="路径_7990" data-name="路径 7990" d="M295.28,610.93l-.06-59.35c-.16-.67-.51-1.43-1.41-1.48-.47-.1-1.22.46-1.53.95a8.831,8.831,0,0,0-1.02,2.74,96.855,96.855,0,0,1-7.89,21.17,69.216,69.216,0,0,1-11.41,16.7,44.951,44.951,0,0,1-20.81,12.95,52.839,52.839,0,0,1-13.86,2.45c-18.19.18-36.37.08-54.56.08a20.674,20.674,0,0,1-2.26-.26V527.67q0-53.895-.01-107.79c0-.71,0-1.43.02-2.14a1.417,1.417,0,0,1,1.49-1.53c.62-.03,1.25-.01,1.87-.01h28.52l-.02-3.78H120.57l-.01,3.93H151.9V607.18H120.59v3.73H295.25"/>
      <path id="路径_7991" data-name="路径 7991" d="M494.96,490.42c0-.28-.3-1.73-.3-1.73-.56-2.33-1-4.7-1.64-7.01a93.234,93.234,0,0,0-14.54-30.11,82.8,82.8,0,0,0-13.5-14.36,95.691,95.691,0,0,0-15.18-10.36,109.456,109.456,0,0,0-18.52-8.08,104.915,104.915,0,0,0-16.89-4.6q-6.69-1.065-13.43-1.79c-3-.32-6.03-.36-9.05-.48-5.04-.19-10.08-.43-15.12-.48-3.11-.03-6.21.25-9.32.41-2.74.14-5.48.32-8.22.48.36,3.54.43,3.69,3.57,3.61,3.73-.1,7.46-.45,11.19-.48,8.72-.07,17.44-.09,26.05,1.57a116.625,116.625,0,0,1,11.93,2.58,71.757,71.757,0,0,1,14.26,5.91,64.309,64.309,0,0,1,14.53,10.75,67.949,67.949,0,0,1,14.5,22.49,110.706,110.706,0,0,1,7.01,28.4c.1.92.32,3.36.32,3.36Z"/>
      <rect id="矩形_20063" data-name="矩形 20063" width="6.36" height="301.82" transform="translate(330.64 360.62)"/>
    </g>
  </g>
</svg>
