<?xml version="1.0" encoding="UTF-8"?>
<svg width="157px" height="32px" viewBox="0 0 157 32" version="1.1" xmlns="http://www.w3.org/2000/svg" xmlns:xlink="http://www.w3.org/1999/xlink">
    <title>logo_dlzb</title>
    <defs>
        <linearGradient x1="62.1752938%" y1="-7.20606827%" x2="49.2723928%" y2="93.1731985%" id="linearGradient-1">
            <stop stop-color="#567FCF" offset="0%"></stop>
            <stop stop-color="#2B52A1" offset="100%"></stop>
        </linearGradient>
    </defs>
    <g id="页面1" stroke="none" stroke-width="1" fill="none" fill-rule="evenodd">
        <g id="德邻资本-940" transform="translate(-30.000000, -8.000000)">
            <g id="logo_dlzb" transform="translate(30.000000, 8.000000)">
                <rect id="矩形" fill="#858F9F" opacity="0" x="0" y="0" width="157" height="32"></rect>
                <g id="资源-8" fill-rule="nonzero">
                    <path d="M57.2903226,14.8387097 C57.2852602,15.0113315 57.2956239,15.1840606 57.3212903,15.3548387 C57.3212903,15.5458065 57.3212903,15.7058065 57.3212903,15.8451613 C57.3212903,16.2270968 57.1406452,16.4180645 56.7741935,16.4180645 C56.4077419,16.4180645 56.3354839,16.32 56.3354839,16.1135484 C56.339392,15.8079572 56.3617986,15.5028829 56.4025806,15.2 C56.4457166,14.8575794 56.468123,14.5128653 56.4696774,14.1677419 L56.4696774,7.96903226 C56.2769892,8.20645161 56.0860215,8.43870968 55.8967742,8.66580645 C55.3447957,9.22788205 54.7494065,9.74561183 54.116129,10.2141935 L53.8116129,10.0077419 C54.3673702,9.49205403 54.8848657,8.93660886 55.36,8.34580645 C55.6954839,7.89677419 56.036129,7.40129032 56.3922581,6.85419355 C56.6966389,6.35673859 56.9673526,5.83945139 57.2025806,5.30580645 C57.4202624,4.81106979 57.5746015,4.29082586 57.6619355,3.75741935 L57.6619355,3.75741935 C58.1952688,3.93978495 58.6597849,4.12043011 59.0554839,4.29935484 L58.5703226,4.40258065 C58.2451613,5.09419355 57.6722581,6.16258065 57.2903226,6.80774194 L57.2903226,14.8387097 L57.2903226,14.8387097 Z M57.3419355,0.294193548 C57.8580645,0.47483871 58.4154839,0.676129032 58.8129032,0.856774194 L58.2451613,1.00129032 C57.9509677,1.51741935 57.4193548,2.32258065 57.0683871,2.78193548 C56.7313996,3.21038174 56.3639979,3.61400611 55.9690323,3.98967742 C55.493962,4.36713041 54.993895,4.71200419 54.4722581,5.02193548 L54.1677419,4.82064516 C54.6238119,4.45224387 55.0500827,4.04840838 55.4425806,3.61290323 C55.716129,3.27741935 55.9587097,2.91096774 56.2580645,2.51354839 C56.5032472,2.14720408 56.728937,1.768183 56.9341935,1.37806452 C57.1094353,1.02183248 57.2411363,0.645791526 57.3264516,0.258064516 L57.3419355,0.294193548 Z M59.8709677,11.6180645 L60.0722581,11.6851613 C60.0049826,12.1912732 59.8997396,12.6916089 59.7574194,13.1819355 C59.6637743,13.4742589 59.5300262,13.752177 59.36,14.0077419 C59.2471823,14.1968347 59.1101045,14.3703509 58.9522581,14.523871 C58.8468845,14.6449375 58.7253076,14.7508831 58.5909677,14.8387097 C58.4980645,14.8851613 58.1729032,14.5135484 58.203871,14.436129 C58.2348387,14.3587097 58.4206452,14.2141935 58.6787097,13.92 C58.9101305,13.6856758 59.1096947,13.4219041 59.2722581,13.1354839 C59.4047623,12.9127148 59.515386,12.6776396 59.6025806,12.4335484 C59.7204677,12.1482498 59.8053207,11.8503984 59.8554839,11.5458065 L59.8709677,11.6180645 Z M59.1948387,9.38322581 L68.4490323,9.38322581 L69.1458065,8.58322581 C69.5174194,8.86709677 69.8374194,9.00645161 70.1780645,9.27483871 C70.2461188,9.30525324 70.2917934,9.37078641 70.2967742,9.44516129 C70.2967742,9.57935484 70.2141935,9.63612903 70.0696774,9.63612903 L59.1329032,9.63612903 L59.1948387,9.38322581 Z M59.4270968,2.48258065 L63.8658065,2.48258065 L63.8658065,0.418064516 L65.4141935,0.418064516 L65.4141935,0.583225806 C65.4141935,0.583225806 64.7845161,0.784516129 64.6709677,0.79483871 L64.6709677,2.48258065 L67.8554839,2.48258065 L68.5935484,1.6 C69.0012903,1.90451613 69.3832258,2.04903226 69.7341935,2.34322581 C69.8078378,2.37803935 69.8584928,2.44817704 69.8683871,2.52903226 C69.8683871,2.66322581 69.7909677,2.73548387 69.6309677,2.73548387 L64.6658065,2.73548387 L64.6658065,4.4283871 L67.9896774,4.4283871 L68.5987097,3.81935484 C69.1612903,4.23741935 69.4451613,4.5316129 69.4451613,4.70193548 C69.4451613,4.87225806 69.2748387,4.94451613 68.9290323,5.12516129 L68.9290323,7.07096774 C68.919238,7.24287136 68.919238,7.41519316 68.9290323,7.58709677 C68.9347815,7.67646677 68.9347815,7.76611387 68.9290323,7.85548387 C68.9290323,8.09290323 68.7380645,8.24774194 68.3509677,8.31483871 C68.1703226,8.31483871 68.0825806,8.25290323 68.0825806,8.12903226 L68.0825806,7.82451613 L60.4593548,7.82451613 L60.4593548,8.09290323 C60.4589144,8.22173913 60.3787525,8.33684341 60.2580645,8.38193548 C60.1243752,8.44160438 59.9809877,8.47657695 59.8348387,8.48516129 C59.6851613,8.48516129 59.6129032,8.40774194 59.6129032,8.24774194 C59.6129032,8.20129032 59.6129032,8.11870968 59.6129032,7.99483871 C59.6129032,7.7316129 59.6129032,7.47870968 59.6129032,7.28258065 L59.6129032,5.03741935 C59.6129032,4.48516129 59.6129032,4.09806452 59.5767742,3.88645161 L60.6451613,4.40258065 L63.8141935,4.40258065 L63.8141935,2.73548387 L59.3754839,2.73548387 L59.4270968,2.48258065 Z M60.2632258,7.53548387 L62.5806452,7.53548387 L62.6116129,4.70193548 L60.2941935,4.70193548 L60.2632258,7.53548387 Z M61.6516129,11.076129 L62.6167742,11.04 L62.6167742,11.2412903 C62.5417178,11.3019191 62.4498102,11.3379613 62.3535484,11.3445161 L62.3535484,14.7045161 C62.334584,14.8454527 62.3867942,14.9866138 62.4929032,15.0812903 C62.6999452,15.1561451 62.9179382,15.1962558 63.1380645,15.2 L65.6825806,15.2 C65.9422415,15.2131794 66.2025112,15.1923579 66.4567742,15.1380645 C66.6064911,15.0747035 66.6996908,14.9235129 66.6890323,14.7612903 C66.6890323,14.4774194 66.6890323,12.4645161 66.6890323,12.4645161 L67.2051613,12.5574194 C67.2051613,12.5574194 67.2412903,13.723871 67.2619355,14.1058065 C67.2755278,14.5194387 67.3378947,14.930021 67.4477419,15.3290323 C67.483871,15.396129 67.6335484,15.36 67.6335484,15.36 L67.7367742,15.6180645 C67.5662277,15.6465561 67.3935522,15.6603701 67.2206452,15.6593548 L62.9677419,15.6593548 C62.6730247,15.653802 62.3800947,15.6122025 62.0954839,15.5354839 C61.9350579,15.4473386 61.8053975,15.3122758 61.723871,15.1483871 C61.6530097,14.9766285 61.6178868,14.792233 61.6206452,14.6064516 L61.6206452,11.076129 L61.6516129,11.076129 Z M63.2774194,10.1264516 C63.7462699,10.3866835 64.1798981,10.7058338 64.5677419,11.076129 C64.8180421,11.3050824 65.0290242,11.5736051 65.1922581,11.8709677 C65.2831981,12.0302158 65.3427677,12.2054204 65.3677419,12.3870968 C65.3677419,12.5316129 65.12,12.676129 65.0477419,12.6193548 C64.9754839,12.5625806 64.9341935,12.4851613 64.8103226,12.2529032 C64.5901748,11.8935371 64.3470902,11.5487362 64.0825806,11.2206452 C63.7940348,10.8737951 63.4725298,10.5557471 63.1225806,10.2709677 L63.2258065,10.1316129 L63.2774194,10.1264516 Z M63.1845161,7.54580645 L65.6,7.54580645 L65.6309677,4.71225806 L63.2154839,4.71225806 L63.1845161,7.54580645 Z M68.3767742,4.71225806 L66.1677419,4.71225806 L66.1316129,7.54580645 L68.3458065,7.54580645 L68.3767742,4.71225806 Z M69.1612903,12.6864516 C69.4442662,12.9407705 69.6847252,13.2387306 69.8735484,13.5690323 C69.9822733,13.7456764 70.047708,13.9455173 70.0645161,14.1522581 C70.0645161,14.3535484 69.8167742,14.4567742 69.7393548,14.3896774 C69.6251837,14.2761864 69.5294094,14.1455851 69.4554839,14.0025806 C69.2013621,13.6012721 68.9238954,13.2152314 68.6245161,12.8464516 C68.3213935,12.4544515 67.9751297,12.0977998 67.5922581,11.7832258 L67.7058065,11.6387097 C68.2297671,11.9306312 68.7181784,12.282218 69.1612903,12.6864516 L69.1612903,12.6864516 Z" id="形状" fill="#08070B"></path>
                    <path d="M87.4116129,0.516129032 L88.8412903,0.516129032 L88.8412903,0.670967742 C88.6428334,0.804489065 88.4319654,0.918565219 88.2116129,1.0116129 C88.1083871,1.36258065 88.0670968,1.48129032 88.0670968,1.48129032 C88.675911,1.84992822 89.2572176,2.26219016 89.8064516,2.71483871 C90.3109922,3.12254568 90.7758563,3.57704107 91.1948387,4.07225806 C91.4535501,4.3637097 91.6802252,4.68209304 91.8709677,5.02193548 C92.0341673,5.28464641 92.1625531,5.5674421 92.2529032,5.86322581 C92.2993548,6.04387097 91.7367742,6.42064516 91.6645161,6.34322581 C91.4472171,6.16864955 91.2710056,5.94838522 91.1483871,5.69806452 C90.8657078,5.17316716 90.5375708,4.67405343 90.1677419,4.20645161 C89.8044996,3.7054797 89.4079017,3.22956226 88.9806452,2.78193548 C88.6503226,2.46709677 88.3045161,2.15225806 87.9483871,1.83225806 C87.803871,2.16258065 87.6490323,2.46709677 87.4941935,2.75096774 C87.2283911,3.19817538 86.9335657,3.62748246 86.6116129,4.03612903 C86.2245161,4.49032258 85.8735484,4.87741935 85.5793548,5.19225806 C85.2548889,5.55204204 84.8971719,5.88038132 84.5109677,6.17290323 C84.1087291,6.53255239 83.671247,6.8507212 83.2051613,7.12258065 L82.8696774,6.71483871 C83.374253,6.38287464 83.850695,6.01000694 84.2941935,5.6 C84.676129,5.20258065 85.0580645,4.77935484 85.4451613,4.32516129 C85.8322581,3.87096774 86.1677419,3.37032258 86.4774194,2.92129032 C86.7199486,2.53400054 86.9355125,2.13046482 87.1225806,1.71354839 C87.253423,1.32353298 87.3501308,0.922886564 87.4116129,0.516129032 Z M90.5083871,8.25806452 C90.9443959,8.54897887 91.358416,8.8715696 91.7470968,9.22322581 C91.7854485,9.26012932 91.8092611,9.30958635 91.8141935,9.36258065 C91.8141935,9.45032258 91.6851613,9.52774194 91.4219355,9.59483871 L90.8129032,9.73419355 C90.4258065,10.4464516 89.9767742,11.1845161 89.4554839,11.9535484 C88.9341935,12.7225806 88.5109677,13.2748387 88.0516129,13.8529032 C88.2649462,13.9870968 88.4507527,14.1109677 88.6090323,14.2245161 C88.96,14.4516129 89.2283871,14.6270968 89.403871,14.7406452 C89.5637315,14.8603304 89.6885089,15.0207585 89.7651613,15.2051613 C89.8580645,15.3445161 89.2025806,16.0722581 89.0683871,16.0154839 C88.7756372,15.7577798 88.5046132,15.4763982 88.2580645,15.1741935 C87.8383481,14.6883999 87.359836,14.2566988 86.8335484,13.8890323 C86.1580823,13.3856489 85.4435609,12.9369157 84.6967742,12.5470968 L84.9032258,12.3096774 L84.9032258,12.3096774 C85.6534924,12.6078103 86.384381,12.9525691 87.0916129,13.3419355 L87.6490323,13.6309677 C88.1827042,12.9835034 88.643137,12.2790065 89.0219355,11.5303226 C89.3813271,10.8072299 89.6866782,10.0585159 89.9354839,9.29032258 L89.9354839,9.22322581 L84.036129,9.22322581 L84.036129,8.97032258 L89.92,8.97032258 L90.5135484,8.25806452 L90.5083871,8.25806452 Z M89.0322581,6.34322581 L89.7290323,5.42451613 C90.1109677,5.72903226 90.4670968,5.90967742 90.7974194,6.1883871 C90.8746936,6.23701777 90.9244464,6.3193012 90.9316129,6.41032258 C90.9316129,6.53419355 90.8541935,6.59612903 90.6941935,6.59612903 L85.0683871,6.59612903 L85.0683871,6.34322581 L89.0322581,6.34322581 Z M92.8103226,0.763870968 L93.8425806,1.52774194 L96.7070968,1.52774194 L97.2232258,0.830967742 C97.6774194,1.15096774 98.0490323,1.42451613 98.3432258,1.66193548 C98.4203503,1.74584133 98.4675351,1.85291446 98.4774194,1.96645161 C98.4774194,2.03870968 98.3896774,2.11612903 98.2090323,2.20387097 C97.9992263,2.31840016 97.7754129,2.40514956 97.5432258,2.46193548 C96.942014,3.98215589 96.2632741,5.47056023 95.5096774,6.92129032 C96.1536593,7.3801963 96.7409816,7.91381064 97.2593548,8.51096774 C97.6513467,8.99317416 97.960105,9.53742597 98.1729032,10.1212903 C98.400719,10.6346726 98.5168321,11.1906081 98.5135484,11.7522581 C98.5320647,12.1997365 98.4509727,12.6457424 98.276129,13.0580645 C98.1902647,13.3515159 98.0085494,13.6077345 97.76,13.7858065 C97.4286218,14.0319656 97.0456513,14.1996254 96.64,14.276129 C96.2683871,14.0593548 95.7935484,13.0890323 96.2683871,13.0890323 C96.5367636,13.1076915 96.8053711,13.0561046 97.0477419,12.9393548 C97.2295092,12.8457955 97.3695062,12.6873779 97.44,12.4954839 C97.5812082,12.1887187 97.6450081,11.8519973 97.6258065,11.5148387 C97.6249833,11.0153002 97.5322569,10.5201762 97.3522581,10.0541935 C97.2141307,9.53028388 96.9795903,9.03669882 96.6606452,8.59870968 C96.2044223,8.01669444 95.685126,7.48701223 95.1122581,7.01935484 C95.8348387,5.03225806 96.3767742,3.18451613 96.7380645,1.78064516 L93.6412903,1.78064516 L93.6412903,16.0929032 C93.6412903,16.2270968 93.5535484,16.2941935 93.3729032,16.2941935 C93.2263155,16.2886404 93.0823606,16.2535295 92.9496774,16.1909677 C92.8225763,16.0881059 92.7517332,15.9311022 92.7587097,15.7677419 C92.7587097,15.5870968 92.7587097,15.3341935 92.8103226,15.0090323 C92.8861548,14.4636913 92.9155077,13.9128924 92.8980645,13.3625806 L92.8980645,1.9716129 C92.9241609,1.56201408 92.8963971,1.15076164 92.8154839,0.748387097 L92.8103226,0.763870968 Z" id="形状" fill="#08070B"></path>
                    <path d="M111.277419,2.1883871 L114.498065,2.1883871 L115.189677,1.39354839 C115.566452,1.67741935 115.917419,1.95096774 116.258065,2.22451613 C116.326119,2.25493066 116.371793,2.32046383 116.376774,2.39483871 C116.376774,2.52903226 116.304516,2.59612903 116.154839,2.59612903 L112.68129,2.59612903 C111.994839,2.59612903 111.277419,2.59612903 111.277419,2.59612903 L111.277419,2.1883871 Z M115.612903,4.70193548 L115.731613,5.10451613 C115.256774,5.37806452 114.771613,5.62064516 114.276129,5.88387097 C113.780645,6.14709677 112.779355,6.57032258 112.562581,6.64774194 L111.814194,6.90580645 C111.814194,6.90580645 111.896774,7.06580645 111.101935,6.07483871 C111.624559,5.99313595 112.141664,5.87937287 112.650323,5.73419355 C113.125161,5.61032258 113.589677,5.46580645 114.054194,5.31096774 C114.51871,5.15612903 114.993548,4.95483871 115.602581,4.71741935 L115.612903,4.70193548 Z M117.104516,13.6516129 C117.421506,13.8304225 117.728223,14.0268597 118.023226,14.24 C118.054194,14.2090323 116.474839,15.1122581 115.566452,15.5354839 C114.433419,16.0668247 113.259804,16.5069303 112.056774,16.8516129 L111.834839,16.4593548 C112.944516,16.1806452 115.535484,14.6012903 115.963871,14.3535484 C116.36232,14.1506846 116.736347,13.9030649 117.07871,13.6154839 L117.104516,13.6516129 Z M123.509677,6.28645161 C124.025806,6.75612903 124.252903,7.0916129 124.252903,7.28258065 C124.252903,7.47354839 124.103226,7.55612903 123.809032,7.75741935 L123.809032,12.2580645 C123.809032,12.5539785 123.809032,12.7449462 123.809032,12.8309677 C123.809032,12.9187097 123.809032,13.0219355 123.809032,13.1354839 C123.809032,13.403871 123.643871,13.5793548 123.292903,13.6516129 C123.132903,13.6516129 123.050323,13.5793548 123.050323,13.44 L123.050323,12.923871 L115.483871,12.923871 L115.483871,13.3058065 C115.488015,13.4405262 115.418889,13.566929 115.303226,13.636129 C115.189328,13.7011154 115.062381,13.7399049 114.931613,13.7496774 C114.802581,13.7496774 114.740645,13.6567742 114.740645,13.4812903 C114.740645,13.4296774 114.740645,13.3316129 114.740645,13.1922581 C114.740645,12.8980645 114.740645,12.6296774 114.740645,12.3922581 L114.740645,7.64387097 C114.740645,7.02107527 114.730323,6.58752688 114.709677,6.34322581 L115.643871,6.95225806 L122.941935,6.95225806 L123.509677,6.28645161 Z M122.869677,7.22580645 L115.685161,7.22580645 L115.685161,8.98064516 L122.869677,8.98064516 L122.869677,7.22580645 Z M115.695484,10.7716129 L122.88,10.7716129 L122.88,9.14064516 L115.695484,9.14064516 L115.695484,10.7716129 Z M115.695484,12.7174194 L122.88,12.6864516 L122.88,10.9780645 L115.695484,10.9780645 L115.695484,12.7174194 Z M122.265806,2.91096774 L122.265806,3.04516129 C122.179503,3.084595 122.089633,3.11570373 121.997419,3.13806452 C121.883871,3.31354839 121.48129,3.83483871 121.48129,3.83483871 C121.711387,4.12793147 121.978567,4.38990648 122.276129,4.61419355 C122.590778,4.86209392 122.925723,5.08308804 123.277419,5.27483871 C123.688412,5.48737388 124.11875,5.66020039 124.562581,5.79096774 C125.044514,5.98117618 125.54418,6.12295009 126.054194,6.21419355 C126.504536,6.33088097 126.963722,6.41028904 127.427097,6.4516129 L126.312258,7.26709677 C125.753969,7.1452694 125.208027,6.97250302 124.68129,6.75096774 C124.157382,6.57407735 123.656596,6.33494804 123.189677,6.03870968 C122.733766,5.7755092 122.312452,5.45648922 121.935484,5.08903226 C121.642807,4.80850583 121.381487,4.49699918 121.156129,4.16 C120.822004,4.48934631 120.464983,4.79462552 120.087742,5.07354839 C119.528152,5.48161965 118.925914,5.82773344 118.291613,6.10580645 C117.504714,6.57022568 116.654556,6.91793837 115.767742,7.13806452 L115.494194,6.75096774 C116.343694,6.46127872 117.165838,6.09684113 117.950968,5.66193548 C118.577915,5.30619877 119.158635,4.8745589 119.68,4.37677419 C120.14259,3.97967606 120.515552,3.48884402 120.774194,2.93677419 L122.265806,2.91096774 Z M125.96129,1.7083871 C126.333245,1.94901376 126.688468,2.21456828 127.024516,2.50322581 C127.051937,2.53752243 127.069749,2.57849081 127.076129,2.62193548 C127.076129,2.69935484 126.967742,2.7716129 126.750968,2.8283871 L126.234839,2.92645161 C126.054194,3.10709677 125.847742,3.31354839 125.610323,3.53548387 C125.362035,3.75439735 125.101854,3.95944036 124.830968,4.14967742 L124.541935,3.92774194 C124.766336,3.70947972 124.970204,3.47105788 125.150968,3.21548387 C125.29938,3.02015714 125.422506,2.80685355 125.517419,2.58064516 L118.807742,2.58064516 L118.72,2.66322581 C118.380964,3.05403394 117.994297,3.40082111 117.569032,3.69548387 C117.133587,3.97924759 116.680158,4.23440907 116.211613,4.45935484 L116.010323,4.10322581 C116.459355,3.7883871 116.820645,3.51483871 117.094194,3.28774194 C117.390405,3.06189008 117.657398,2.8000986 117.889032,2.5083871 C118.168743,2.15279592 118.423955,1.77859981 118.652903,1.3883871 C118.776774,1.12 118.905806,0.789677419 119.045161,0.407741935 L120.418065,0.407741935 L120.418065,0.629677419 L120.036129,0.769032258 C119.803096,1.33428247 119.492124,1.86414958 119.112258,2.34322581 L125.419355,2.34322581 L125.96129,1.7083871 Z M120.939355,13.76 C121.670499,13.8762862 122.394292,14.0348314 123.107097,14.2348387 C123.670633,14.4048301 124.225306,14.6029275 124.769032,14.8283871 C125.014903,14.9293838 125.252971,15.0484178 125.48129,15.1845161 C125.613296,15.2693612 125.731637,15.3737798 125.832258,15.4941935 C125.873548,15.5716129 125.790968,16.1393548 125.6,16.1651613 L125.6,16.1651613 C125.497402,16.155111 125.398499,16.1215548 125.310968,16.0670968 C125.13639,15.9910343 124.971734,15.8939744 124.820645,15.7780645 C124.560166,15.6056194 124.287637,15.4521062 124.005161,15.3187097 C123.664516,15.163871 123.277419,14.9935484 122.833548,14.8025806 C122.389677,14.6116129 121.615484,14.3122581 120.732903,14.0232258 L120.934194,13.7135484 L120.934194,13.7135484 L120.939355,13.76 Z" id="形状" fill="#08070B"></path>
                    <path d="M148.572903,4.12903226 L156.077419,4.12903226 C156.268387,4.12903226 156.36129,4.06709677 156.36129,3.93290323 C156.353476,3.83789842 156.296767,3.75381323 156.211613,3.71096774 C155.803871,3.38580645 155.370323,3.19483871 154.905806,2.85935484 L154.074839,3.8916129 L148.583226,3.8916129 L148.583226,0.686451613 C148.758802,0.630780328 148.931116,0.565301065 149.099355,0.490322581 L149.099355,0.294193548 L147.649032,0.294193548 C147.741587,0.745693676 147.781423,1.20641082 147.767742,1.66709677 L147.767742,3.89677419 L140.541935,3.89677419 L140.541935,4.12903226 L146.952258,4.12903226 C146.701379,4.79725124 146.404763,5.44739261 146.064516,6.07483871 C145.675707,6.88881253 145.203502,7.66025365 144.655484,8.37677419 C144.055704,9.21662436 143.387629,10.0055389 142.658065,10.7354839 C141.812598,11.58135 140.905127,12.3628792 139.943226,13.0735484 L140.165161,13.3987097 C141.228387,12.6606452 142.136774,11.9741935 142.895484,11.3341935 C143.588608,10.6828822 144.245099,9.99365301 144.861935,9.26967742 C145.530348,8.50892106 146.124855,7.68628895 146.637419,6.81290323 C147.080668,6.12357425 147.465658,5.39848088 147.788387,4.64516129 L147.788387,11.8709677 L144.072258,11.8709677 L144.072258,12.123871 L147.788387,12.123871 L147.788387,14.1883871 C147.78486,14.5336043 147.760731,14.8783032 147.716129,15.2206452 C147.677947,15.5237927 147.655551,15.8287204 147.649032,16.1341935 C147.649032,16.3406452 147.79871,16.4387097 148.092903,16.4387097 C148.387097,16.4387097 148.634839,16.2477419 148.634839,15.8658065 C148.634839,15.7264516 148.634839,15.5664516 148.634839,15.3754839 C148.609172,15.2047058 148.598809,15.0319767 148.603871,14.8593548 L148.603871,12.1393548 L152.402581,12.1393548 C152.567742,12.1393548 152.655484,12.0929032 152.655484,11.9535484 C152.655484,11.8141935 152.603871,11.8090323 152.500645,11.7522581 C152.129032,11.4477419 151.72129,11.2670968 151.282581,10.9367742 L150.482581,11.8709677 L148.583226,11.8709677 L148.572903,4.12903226 Z" id="路径" fill="#08070B"></path>
                    <path d="M154.585806,11.0245161 C153.810592,10.463504 153.083748,9.83852192 152.412903,9.15612903 C151.707858,8.43257956 151.050968,7.66362137 150.446452,6.85419355 C150.067952,6.31876492 149.723198,5.76026254 149.414194,5.18193548 C149.401518,5.1119673 149.401518,5.04029076 149.414194,4.97032258 L149.027097,5.31612903 C149.379192,6.00104468 149.768594,6.6661299 150.193548,7.3083871 C150.709677,8.05677419 151.225806,8.74322581 151.788387,9.37290323 C152.272433,10.0891704 152.829385,10.7533612 153.450323,11.3548387 C154.042286,11.9372834 154.708714,12.4388404 155.432258,12.8464516 L156.567742,12.0309677 C155.864458,11.7870416 155.197683,11.4484445 154.585806,11.0245161 L154.585806,11.0245161 Z" id="路径" fill="#08070B"></path>
                    <polygon id="路径" fill="url(#linearGradient-1)" points="109.55871 25.7909677 106.482581 28.8722581 109.615484 29.8735484 107.726452 28.5832258"></polygon>
                    <path d="M53.8477419,24.2580645 L55.04,24.196129 C56.0309677,24.1496774 56.7019355,24.123871 57.0477419,24.123871 C57.9129243,24.0815052 58.7754626,24.2497621 59.5612903,24.6141935 C60.1332131,24.9189752 60.6006419,25.3882018 60.9032258,25.9612903 C61.2054593,26.5627424 61.3560681,27.2289645 61.3419355,27.9019355 C61.3487981,28.3972684 61.2684326,28.889944 61.1045161,29.3574194 C60.9627859,29.7641226 60.7377788,30.1367905 60.443871,30.4516129 C60.17029,30.7373803 59.8397042,30.96246 59.4735484,31.1122581 C59.1444735,31.2548111 58.7969838,31.3503708 58.4412903,31.396129 C57.9765213,31.4417608 57.509519,31.4607166 57.0425806,31.4529032 L53.8374194,31.4529032 L53.8374194,31.3806452 C54.1653451,31.3342876 54.4883893,31.2582772 54.8025806,31.1535484 C54.9170987,31.0376681 54.9897415,30.8869343 55.0090323,30.7251613 C55.0536291,30.3414963 55.0708769,29.9551449 55.0606452,29.5690323 L55.0606452,26.0748387 C55.07014,25.7024695 55.0528914,25.3298991 55.0090323,24.96 C54.9839589,24.8070985 54.9138786,24.665141 54.8077419,24.5522581 C54.5029606,24.4498551 54.1880195,24.3806373 53.8683871,24.3458065 L53.8477419,24.2580645 Z M56.0774194,24.4077419 L56.0774194,29.243871 C56.0774194,29.9612903 56.0774194,30.4206452 56.1187097,30.6270968 C56.1271391,30.8016486 56.2169402,30.9621443 56.3612903,31.0606452 C56.6298159,31.1677687 56.9197807,31.2102025 57.2077419,31.1845161 C57.7359318,31.2028531 58.2624371,31.1151022 58.756129,30.9264516 C59.2102181,30.7134908 59.5754263,30.3482826 59.7883871,29.8941935 C60.0799258,29.2900378 60.2198756,28.6239476 60.196129,27.9535484 C60.2029957,27.3974226 60.1228889,26.8436413 59.9587097,26.3122581 C59.8241677,25.8747721 59.5910983,25.4739634 59.2774194,25.1406452 C59.0064269,24.8553732 58.6671202,24.6439727 58.2916129,24.5264516 C57.8422946,24.4073781 57.3781961,24.353494 56.9135484,24.3664516 C56.6296774,24.3974194 56.356129,24.4025806 56.0774194,24.4232258 L56.0774194,24.4077419 Z" id="形状" fill="#08070B"></path>
                    <path d="M123.230968,28.7845161 L120.48,28.7845161 L120.294194,29.243871 C120.091497,29.654445 119.950619,30.0927326 119.876129,30.5445161 C119.867103,30.744648 119.93549,30.9405698 120.067097,31.0916129 C120.248867,31.2243274 120.453594,31.3223161 120.670968,31.3806452 L120.670968,31.4529032 L118.51871,31.4529032 L118.51871,31.3806452 C118.816068,31.3000644 119.075547,31.1173323 119.251613,30.8645161 C119.479736,30.515325 119.663514,30.1391003 119.79871,29.7445161 C119.79871,29.6929032 119.901935,29.4864516 120.056774,29.1251613 L122.157419,24.1032258 L122.369032,24.1032258 L124.784516,29.8529032 L125.114839,30.6116129 C125.186534,30.7754491 125.28607,30.9256266 125.409032,31.0554839 C125.5622,31.2207002 125.765214,31.3312703 125.987097,31.3703226 L125.987097,31.4425806 L123.138065,31.4425806 L123.138065,31.3806452 C123.381442,31.3522119 123.618541,31.2842202 123.84,31.1793548 C123.961365,31.1020333 124.033719,30.9671025 124.030968,30.8232258 C123.976891,30.5824919 123.895504,30.3487198 123.788387,30.1264516 L123.230968,28.7845161 Z M123.138065,28.5419355 L121.858065,25.4451613 L120.583226,28.5419355 L123.138065,28.5419355 Z" id="形状" fill="#08070B"></path>
                    <path d="M147.370323,28.7845161 L144.619355,28.7845161 L144.433548,29.243871 C144.230852,29.654445 144.089973,30.0927326 144.015484,30.5445161 C144.007102,30.7436608 144.073363,30.9387621 144.20129,31.0916129 C144.383595,31.2234309 144.588151,31.3213378 144.805161,31.3806452 L144.805161,31.4529032 L142.652903,31.4529032 L142.652903,31.3806452 C142.950839,31.3012979 143.210708,31.1182919 143.385806,30.8645161 C143.618238,30.5170318 143.803919,30.140464 143.938065,29.7445161 C143.938065,29.6929032 144.04129,29.4864516 144.190968,29.1251613 L146.296774,24.1032258 L146.503226,24.1032258 L148.923871,29.8529032 L149.254194,30.6116129 C149.323916,30.776516 149.423674,30.9270277 149.548387,31.0554839 C149.700204,31.2197241 149.901257,31.3302129 150.12129,31.3703226 L150.12129,31.4425806 L147.277419,31.4425806 L147.277419,31.3806452 C147.520635,31.3514108 147.757608,31.2834554 147.979355,31.1793548 C148.10072,31.1020333 148.173074,30.9671025 148.170323,30.8232258 C148.115869,30.581906 148.032696,30.3479805 147.922581,30.1264516 L147.370323,28.7845161 Z M147.277419,28.5419355 L145.997419,25.4451613 L144.722581,28.5419355 L147.277419,28.5419355 Z" id="形状" fill="#08070B"></path>
                    <path d="M82.6580645,29.3212903 L82.5806452,31.4529032 L76.4541935,31.4529032 L76.4541935,31.3806452 C76.9083871,31.2412903 77.1406452,31.3445161 77.3367742,31.1329032 C77.4369781,31.0160039 77.506195,30.8757953 77.5380645,30.7251613 C77.5854599,30.3417263 77.6027171,29.9551653 77.5896774,29.5690323 L77.5896774,26.0180645 C77.6023318,25.6456692 77.585072,25.272859 77.5380645,24.9032258 C77.5073716,24.7583061 77.437784,24.6244839 77.3367742,24.516129 C77.1870968,24.3406452 76.9393548,24.4335484 76.4541935,24.2890323 L76.4541935,24.2116129 L79.9277419,24.2116129 L79.9277419,24.2890323 C79.4993548,24.4077419 79.0812903,24.3664516 78.8954839,24.5264516 C78.7873019,24.6179461 78.7098306,24.7404589 78.6735484,24.8774194 C78.6259351,25.2556481 78.6086757,25.6370814 78.6219355,26.0180645 L78.6219355,29.8116129 C78.6098436,30.1390719 78.62365,30.4669745 78.6632258,30.7922581 C78.6899136,30.9239812 78.7755071,31.0362037 78.8954839,31.0967742 C79.1551322,31.1961758 79.4340411,31.2350112 79.7109677,31.2103226 L80.2580645,31.2103226 C80.6191528,31.2227779 80.9805731,31.1985679 81.3367742,31.1380645 C81.6803404,31.0866805 81.9966467,30.9212559 82.2348387,30.6683871 C82.4774194,30.3535484 82.4154839,29.9406452 82.5651613,29.3212903 L82.6580645,29.3212903 Z" id="路径" fill="#08070B"></path>
                    <path d="M156.567742,29.3212903 L156.516129,31.4529032 L150.363871,31.4529032 L150.363871,31.3806452 C150.818065,31.2412903 151.050323,31.3445161 151.246452,31.1329032 C151.350616,31.0186628 151.420391,30.8773223 151.447742,30.7251613 C151.495137,30.3417263 151.512395,29.9551653 151.499355,29.5690323 L151.499355,26.0180645 C151.512009,25.6456692 151.494749,25.272859 151.447742,24.9032258 C151.419143,24.7575644 151.349271,24.6231955 151.246452,24.516129 C151.101935,24.3406452 150.854194,24.4335484 150.363871,24.2890323 L150.363871,24.2116129 L153.837419,24.2116129 L153.837419,24.2890323 C153.409032,24.4077419 152.996129,24.3664516 152.805161,24.5264516 C152.69673,24.616816 152.620643,24.7400053 152.588387,24.8774194 C152.538002,25.2554147 152.519012,25.6369341 152.531613,26.0180645 L152.531613,29.8116129 C152.522342,30.1390586 152.536139,30.4667507 152.572903,30.7922581 C152.603543,30.9221513 152.687994,31.0328767 152.805161,31.0967742 C153.064945,31.1956493 153.343732,31.2344678 153.620645,31.2103226 L154.172903,31.2103226 C154.532279,31.2228204 154.891992,31.198609 155.246452,31.1380645 C155.59186,31.0877863 155.910147,30.9222768 156.149677,30.6683871 C156.392258,30.3535484 156.325161,29.9406452 156.474839,29.3212903 L156.567742,29.3212903 Z" id="路径" fill="#08070B"></path>
                    <path d="M103.741935,31.6180645 L98.5806452,24.8309677 L98.5806452,29.8580645 C98.5675851,30.1331174 98.5883862,30.4087326 98.6425806,30.6787097 C98.6955978,30.866026 98.8034487,31.0331948 98.9522581,31.1587097 C99.2374836,31.2917879 99.5461886,31.3672102 99.8606452,31.3806452 L99.8606452,31.4529032 L97.156129,31.4529032 L97.156129,31.3806452 C97.4401048,31.3464413 97.7169925,31.2680768 97.9767742,31.1483871 C98.1198367,31.029248 98.2225884,30.8688111 98.2709677,30.6890323 C98.3157107,30.4144427 98.3330002,30.1360803 98.3225806,29.8580645 L98.3225806,26.0180645 C98.3378623,25.6447351 98.3118987,25.2708594 98.2451613,24.9032258 C98.2147304,24.7457005 98.1308702,24.6035028 98.0077419,24.5006452 C97.8064516,24.3251613 97.6103226,24.3870968 97.2490323,24.2890323 L97.2490323,24.2116129 L99.3806452,24.2116129 L103.669677,29.8890323 L103.669677,25.5483871 C103.68579,25.3202752 103.652336,25.0913784 103.571613,24.8774194 C103.497279,24.7115025 103.377359,24.5701045 103.225806,24.4696774 C102.978424,24.3539863 102.709207,24.2924007 102.436129,24.2890323 L102.436129,24.2116129 L105.063226,24.2116129 L105.063226,24.2890323 C104.784516,24.3664516 104.593548,24.2890323 104.314839,24.5264516 C104.176561,24.646582 104.07017,24.7990743 104.005161,24.9703226 C103.944543,25.1849945 103.920122,25.4082677 103.932903,25.6309677 L103.932903,31.6180645 L103.741935,31.6180645 Z" id="路径" fill="#08070B"></path>
                    <path d="M117.734194,28.7380645 L117.790968,28.7380645 L117.790968,31.2722581 L117.734194,31.2722581 C117.5328,31.0387485 117.359567,30.7823639 117.218065,30.5083871 C116.610107,31.2167484 115.715055,31.6130743 114.781935,31.5870968 C113.821666,31.6280368 112.887356,31.2692618 112.20129,30.596129 C111.521671,29.8949515 111.161297,28.9445367 111.205161,27.9690323 C111.200134,27.268216 111.357354,26.5757429 111.664516,25.9458065 C111.933559,25.3552995 112.381302,24.8642269 112.944516,24.5419355 C113.494602,24.2343251 114.115588,24.0759648 114.745806,24.0825806 C115.255398,24.0743647 115.759623,24.1875942 116.216774,24.4129032 C116.595492,24.5860459 116.931907,24.8396778 117.202581,25.156129 C117.325609,24.829299 117.475812,24.5133546 117.651613,24.2116129 L117.71871,24.2116129 L117.780645,26.9574194 L117.723871,26.9574194 C117.609286,26.1590549 117.198387,25.433072 116.572903,24.923871 C116.096764,24.5484561 115.506965,24.3463955 114.900645,24.3509677 C114.181142,24.3342212 113.501769,24.6816717 113.094194,25.2748387 C112.601424,26.0645975 112.366904,26.9882428 112.423226,27.9174194 C112.364313,28.8105899 112.624,29.6957183 113.156129,30.4154839 C113.59667,30.970717 114.269339,31.2908544 114.978065,31.2825806 C115.391581,31.2772478 115.798772,31.1802977 116.170323,30.9987097 C116.624969,30.7852824 117.011056,30.4492445 117.285161,30.0283871 C117.53803,29.6414349 117.692205,29.1984031 117.734194,28.7380645 L117.734194,28.7380645 Z" id="路径" fill="#08070B"></path>
                    <path d="M128.433548,28.0464516 L128.433548,29.5690323 C128.424963,29.942746 128.437024,30.3166488 128.469677,30.6890323 C128.495032,30.8591778 128.568449,31.0185444 128.68129,31.1483871 C128.908387,31.3703226 129.347097,31.2877419 129.589677,31.3806452 L129.589677,31.4529032 L126.276129,31.4529032 L126.276129,31.3806452 C126.492903,31.2774194 126.967742,31.3341935 127.132903,31.1380645 C127.237554,31.021469 127.308869,30.8788391 127.339355,30.7251613 C127.381191,30.3412956 127.396711,29.955017 127.385806,29.5690323 L127.385806,26.0180645 C127.396373,25.6458228 127.380851,25.2732982 127.339355,24.9032258 C127.314708,24.7495124 127.24038,24.6081068 127.127742,24.5006452 C126.957419,24.3251613 126.554839,24.3509677 126.276129,24.2890323 L126.276129,24.2116129 L127.184516,24.1806452 C127.907097,24.1548387 128.474839,24.1445161 128.882581,24.1445161 C129.462479,24.1252901 130.042323,24.1843161 130.606452,24.32 C130.995733,24.4253997 131.345619,24.6425087 131.612903,24.9445161 C131.877153,25.260525 132.015049,25.6631794 132,26.0748387 C132.002498,26.4364932 131.909947,26.7924585 131.731613,27.1070968 C131.555862,27.410181 131.29092,27.6516926 130.972903,27.7987097 C130.41566,27.9890925 129.826411,28.0680098 129.23871,28.0309677 L128.433548,28.0464516 Z M128.433548,27.7780645 L128.949677,27.7780645 C129.289515,27.7883303 129.628923,27.746557 129.956129,27.6541935 C130.224958,27.5629548 130.453266,27.3803086 130.60129,27.1380645 C130.779702,26.8410644 130.867594,26.4984666 130.854194,26.1522581 C130.896816,25.6716909 130.737922,25.1950091 130.415484,24.836129 C130.008951,24.5209712 129.498089,24.3715853 128.985806,24.4180645 C128.801862,24.4078614 128.617493,24.4078614 128.433548,24.4180645 L128.433548,27.7780645 Z" id="形状" fill="#08070B"></path>
                    <path d="M132.350968,24.2890323 L132.350968,24.2116129 L135.659355,24.2116129 L135.659355,24.2890323 C135.406452,24.4025806 134.99871,24.3612903 134.792258,24.5006452 C134.681047,24.5978683 134.607899,24.7313643 134.585806,24.8774194 C134.535421,25.2554147 134.516431,25.6369341 134.529032,26.0180645 L134.529032,29.5690323 C134.51844,29.9428662 134.532232,30.3169931 134.570323,30.6890323 C134.592628,30.8531671 134.671043,31.0045267 134.792258,31.1174194 C135.062049,31.2591922 135.35628,31.3485124 135.659355,31.3806452 L135.659355,31.4529032 L132.350968,31.4529032 L132.350968,31.3806452 C132.645161,31.2825806 132.954839,31.3290323 133.218065,31.1380645 C133.337367,31.030776 133.414274,30.8842873 133.434839,30.7251613 C133.476675,30.3412956 133.492195,29.955017 133.48129,29.5690323 L133.48129,26.0180645 C133.491857,25.6458228 133.476335,25.2732982 133.434839,24.9032258 C133.408471,24.7463407 133.330341,24.6027989 133.212903,24.4954839 C132.996129,24.3148387 132.645161,24.3716129 132.350968,24.2890323 Z" id="路径" fill="#08070B"></path>
                    <path d="M136.289032,25.956129 L136.216774,25.956129 L136.252903,24.2116129 L143.277419,24.2116129 L143.31871,25.956129 L143.277419,25.956129 C143.076129,25.5793548 143.014194,25.0993548 142.869677,24.8877419 C142.725912,24.6995609 142.521815,24.5665333 142.291613,24.5109677 C142.013678,24.465111 141.731779,24.4478166 141.450323,24.4593548 L140.289032,24.4593548 L140.289032,29.5690323 C140.28115,29.9411316 140.294937,30.3133742 140.330323,30.683871 C140.347456,30.8499393 140.424522,31.004072 140.547097,31.1174194 C140.75871,31.3032258 141.32129,31.3032258 141.579355,31.3806452 L141.579355,31.4529032 L137.966452,31.4529032 L137.966452,31.3806452 C138.320302,31.337004 138.667169,31.248553 138.99871,31.1174194 C139.126062,31.024294 139.208458,30.8819729 139.225806,30.7251613 C139.273202,30.3417263 139.290459,29.9551653 139.277419,29.5690323 L139.277419,24.4593548 L138.203871,24.4593548 C137.881244,24.4463311 137.558107,24.4636112 137.23871,24.5109677 C137.003602,24.5551018 136.793624,24.6858774 136.650323,24.8774194 C136.48,25.0993548 136.490323,25.4916129 136.289032,25.956129 Z" id="路径" fill="#08070B"></path>
                    <path d="M68.3819355,29.5122581 L68.4129032,29.5122581 L68.0309677,31.4529032 L62.2503226,31.4529032 L62.2503226,31.3806452 C62.5455959,31.3144531 62.8341311,31.2211543 63.1122581,31.1019355 C63.2116155,30.9884 63.276128,30.8486231 63.2980645,30.6993548 C63.3350827,30.3237898 63.3488723,29.9462972 63.3393548,29.5690323 L63.3393548,26.0180645 C63.3490393,25.6544166 63.3335182,25.2905347 63.2929032,24.9290323 C63.2709089,24.7785371 63.1980517,24.6401085 63.0864516,24.5367742 C62.8705252,24.4220932 62.6393975,24.3386786 62.4,24.2890323 L62.4,24.2116129 L67.5612903,24.2116129 L67.7316129,26.0180645 L67.68,26.0180645 C67.5515952,25.7387079 67.4429415,25.4506894 67.3548387,25.156129 C67.2567742,24.8619355 67.2464516,24.5677419 67.1329032,24.5419355 C66.548427,24.4790924 65.9606959,24.4515156 65.3729032,24.4593548 L64.3716129,24.4593548 L64.3716129,27.4993548 L65.1406452,27.4993548 C65.3902902,27.5141505 65.6405189,27.4826531 65.8787097,27.4064516 C66.0272134,27.346529 66.1597392,27.2528775 66.2658065,27.1329032 C66.3864045,26.9137373 66.4435941,26.6653201 66.4309677,26.4154839 L66.4722581,26.4154839 L66.4722581,28.9032258 L66.4309677,28.9032258 C66.4420918,28.6194931 66.3722784,28.3384495 66.2296774,28.0929032 C66.1236679,27.9670545 65.9840377,27.8739677 65.8270968,27.8245161 C65.6106754,27.7742159 65.3884509,27.7533824 65.1664516,27.7625806 L64.3716129,27.7625806 L64.3716129,29.476129 C64.3198562,29.9879202 64.3761235,30.5048764 64.5367742,30.9935484 C64.6451613,31.1432258 64.9445161,31.2206452 65.4296774,31.2206452 L65.9458065,31.2206452 C66.4777447,31.22595 67.0087869,31.1757864 67.5303226,31.0709677 C67.6645161,31.0141935 67.7574194,30.683871 67.9329032,30.3225806 C68.0980645,30.0335484 68.2580645,29.7393548 68.3819355,29.5122581 Z" id="路径" fill="#08070B"></path>
                    <path d="M73.4554839,28.7845161 L70.7096774,28.7845161 L70.5187097,29.243871 C70.3193048,29.6553314 70.1802409,30.0933826 70.1058065,30.5445161 C70.0974243,30.7436608 70.1636851,30.9387621 70.2916129,31.0916129 C70.4733835,31.2243274 70.6781099,31.3223161 70.8954839,31.3806452 L70.8954839,31.4529032 L68.7432258,31.4529032 L68.7432258,31.3806452 C69.0405839,31.3000644 69.3000635,31.1173323 69.476129,30.8645161 C69.7042521,30.515325 69.8880301,30.1391003 70.0232258,29.7445161 C70.0232258,29.6929032 70.1264516,29.4864516 70.2812903,29.1251613 L72.3819355,24.1032258 L72.5935484,24.1032258 L75.0090323,29.8529032 L75.3393548,30.6116129 C75.4126094,30.7758296 75.5139083,30.9260314 75.6387097,31.0554839 C75.7905266,31.2197241 75.9915801,31.3302129 76.2116129,31.3703226 L76.2116129,31.4425806 L73.3677419,31.4425806 L73.3677419,31.3806452 C73.6109577,31.3514108 73.8479306,31.2834554 74.0696774,31.1793548 C74.1898461,31.1015033 74.2603738,30.9663253 74.2554839,30.8232258 C74.2041301,30.5817232 74.1226314,30.3476312 74.0129032,30.1264516 L73.4554839,28.7845161 Z M73.3677419,28.5419355 L72.0825806,25.4451613 L70.8077419,28.5419355 L73.3677419,28.5419355 Z" id="形状" fill="#08070B"></path>
                    <path d="M88.8206452,29.5122581 L88.8516129,29.5122581 L88.4645161,31.4529032 L82.6890323,31.4529032 L82.6890323,31.3806452 C82.9828036,31.3150774 83.2696833,31.2217551 83.5458065,31.1019355 C83.6485888,30.9900604 83.7151555,30.8497306 83.7367742,30.6993548 C83.7737923,30.3237898 83.787582,29.9462972 83.7780645,29.5690323 L83.7780645,26.0180645 C83.7877489,25.6544166 83.7722279,25.2905347 83.7316129,24.9290323 C83.7096185,24.7785371 83.6367614,24.6401085 83.5251613,24.5367742 C83.3092349,24.4220932 83.0781072,24.3386786 82.8387097,24.2890323 L82.8387097,24.2116129 L88,24.2116129 L88.1703226,26.0180645 L88.1187097,26.0180645 C87.9907136,25.7379314 87.88039,25.4500559 87.7883871,25.156129 C87.6954839,24.8619355 87.6851613,24.5677419 87.5716129,24.5419355 C86.9871367,24.4790924 86.3994056,24.4515156 85.8116129,24.4593548 L84.8103226,24.4593548 L84.8103226,27.4993548 L85.5741935,27.4993548 C85.8255277,27.5139626 86.0774143,27.4824768 86.3174194,27.4064516 C86.465216,27.3479302 86.5963717,27.2539944 86.6993548,27.1329032 C86.8247037,26.9154216 86.8838952,26.6661001 86.8696774,26.4154839 L86.9109677,26.4154839 L86.9109677,28.9032258 L86.8696774,28.9032258 C86.8808015,28.6194931 86.8109881,28.3384495 86.6683871,28.0929032 C86.5613731,27.9657961 86.4197084,27.8725484 86.2606452,27.8245161 C86.0460333,27.7738564 85.8254637,27.7530151 85.6051613,27.7625806 L84.8103226,27.7625806 L84.8103226,29.476129 C84.7585659,29.9879202 84.8148332,30.5048764 84.9754839,30.9935484 C85.083871,31.1432258 85.3832258,31.2206452 85.8632258,31.2206452 L86.4051613,31.2206452 C86.9354033,31.2262326 87.4647638,31.1760645 87.9845161,31.0709677 C88.123871,31.0141935 88.2167742,30.683871 88.3870968,30.3225806 C88.5316129,30.0335484 88.6967742,29.7393548 88.8206452,29.5122581 Z" id="路径" fill="#08070B"></path>
                    <path d="M93.8941935,28.7845161 L91.1432258,28.7845161 L90.9574194,29.243871 C90.7547225,29.654445 90.6138444,30.0927326 90.5393548,30.5445161 C90.5303284,30.744648 90.5987163,30.9405698 90.7303226,31.0916129 C90.910776,31.2233629 91.1136287,31.3212918 91.3290323,31.3806452 L91.3290323,31.4529032 L89.1819355,31.4529032 L89.1819355,31.3806452 C89.4792935,31.3000644 89.7387731,31.1173323 89.9148387,30.8645161 C90.1429618,30.515325 90.3267398,30.1391003 90.4619355,29.7445161 C90.4619355,29.6929032 90.5651613,29.4864516 90.72,29.1251613 L92.8206452,24.1032258 L93.0270968,24.1032258 L95.4477419,29.8529032 L95.7780645,30.6116129 C95.8497599,30.7754491 95.9492961,30.9256266 96.0722581,31.0554839 C96.2254261,31.2207002 96.4284402,31.3312703 96.6503226,31.3703226 L96.6503226,31.4425806 L93.8012903,31.4425806 L93.8012903,31.3806452 C94.0446674,31.3522119 94.2817668,31.2842202 94.5032258,31.1793548 C94.6245907,31.1020333 94.6969449,30.9671025 94.6941935,30.8232258 C94.6401167,30.5824919 94.5587294,30.3487198 94.4516129,30.1264516 L93.8941935,28.7845161 Z M93.8012903,28.5419355 L92.5212903,25.4451613 L91.2464516,28.5419355 L93.8012903,28.5419355 Z" id="形状" fill="#08070B"></path>
                    <path d="M15.9380645,31.876129 C24.7404145,31.876129 31.876129,24.7404145 31.876129,15.9380645 C31.876129,7.13571454 24.7404145,0 15.9380645,0 C7.13571454,0 0,7.13571454 0,15.9380645 C0,24.7404145 7.13571454,31.876129 15.9380645,31.876129 Z M15.9380645,31.36 C7.42076474,31.36 0.516129032,24.4553643 0.516129032,15.9380645 C0.516129032,7.42076474 7.42076474,0.516129032 15.9380645,0.516129032 C24.4553643,0.516129032 31.36,7.42076474 31.36,15.9380645 C31.36,24.4553643 24.4553643,31.36 15.9380645,31.36 Z" id="椭圆形" fill="#000000"></path>
                    <path d="M12.5316129,15.3651613 C12.407797,14.5473897 11.7255433,13.9815131 10.9384338,14.0067006 C10.1513243,14.0318881 9.50664542,14.6402265 9.43588264,15.4245533 C9.43205551,15.4777071 9.43205551,15.5261639 9.43548899,15.5744377 L9.43483871,22.8851613 C9.42615868,23.2927268 9.59586647,23.6894761 9.90058971,23.9684183 C10.1886506,24.250493 10.5858318,24.4089192 10.9975404,24.4025498 L14.3329032,24.4025806 C15.0455287,24.4025806 15.6232258,23.8248835 15.6232258,23.1122581 C15.6232258,22.4880109 15.179933,21.9673002 14.5909677,21.8477466 L14.5909677,21.8356371 L14.3524536,21.8175158 C14.3050797,21.8139165 14.257501,21.8139165 14.2101271,21.8175158 L12.5316129,21.816873 L12.5316129,15.3651613 Z M14.0748387,22.3380645 L14.3329032,22.3380645 C14.7604785,22.3380645 15.1070968,22.6846828 15.1070968,23.1122581 C15.1070968,23.5398334 14.7604785,23.8864516 14.3329032,23.8864516 L10.9935484,23.8864516 C10.715543,23.8907217 10.4511983,23.7852808 10.2553266,23.5936155 C10.0539772,23.4091074 9.94531533,23.1550737 9.95091001,22.8906196 L9.95096774,15.556129 C9.94861806,15.5139273 9.94861806,15.4899437 9.95031746,15.4660506 C9.99725521,14.9463147 10.4284642,14.5394128 10.9549415,14.5225656 C11.4814187,14.5057183 11.9377606,14.8842185 12.0185362,15.404735 L12.0154839,22.0748387 L12.0154839,22.3329032 L14.0748387,22.3329032 L14.0748387,22.3380645 Z" id="路径" fill="#000000"></path>
                    <path d="M17.3212903,21.5793548 L17.2418196,21.5918961 C16.6499883,21.7834595 16.2790841,22.3700124 16.3597439,22.9868226 C16.4404037,23.6036327 16.9496627,24.0750874 17.5708518,24.1080251 C17.6392859,24.1137515 17.7155529,24.1137515 17.791437,24.1075219 L17.8116129,24.1083871 C19.2684374,23.8325124 20.576115,23.1832846 21.6433231,22.2256185 C23.2168879,20.7772517 24,18.6966652 24,16 C24,13.3055451 23.2253452,11.191235 21.671963,9.67348084 C20.1187946,8.2095177 17.8604404,7.48387097 14.9058065,7.48387097 L10.6993548,7.48387097 C9.98672936,7.48387097 9.40903226,8.06156806 9.40903226,8.77419355 C9.40614912,8.81742305 9.40614912,8.87548018 9.40945051,8.93339628 C9.50221665,9.59613751 10.0542404,10.0708779 10.7018946,10.0645036 L14.8283871,10.0645161 C16.913536,10.0645161 18.4234956,10.5170081 19.3630819,11.4079113 C20.2993233,12.2956428 20.7741935,13.8028931 20.7741935,15.9535484 C20.7915207,16.8382119 20.693394,17.7162761 20.4823723,18.5703583 C20.3161192,19.2296044 20.002332,19.843826 19.5648002,20.3658414 C19.120838,20.8634422 18.5418675,21.2338498 17.8963827,21.4305637 C17.7319502,21.4867863 17.5652384,21.5344035 17.3786416,21.5793548 L17.3212903,21.5793548 Z M23.483871,16 C23.483871,18.5609692 22.7530046,20.5027483 21.2961967,21.8436737 C20.3011109,22.7365928 19.0788466,23.3434151 17.7628009,23.5969164 L17.7703226,23.5922581 C17.7014293,23.5969164 17.6534094,23.5969164 17.6056305,23.5931233 C17.225467,23.5728575 16.9199116,23.2899847 16.8715157,22.9198986 C16.8247658,22.5623994 17.030838,22.2218407 17.3649949,22.0954839 L17.4090323,22.0954839 L17.4685075,22.0885368 C17.6824729,22.0378608 17.8738804,21.9837387 18.0553095,21.9215344 C18.7828588,21.6999715 19.4430312,21.2776133 19.9551744,20.7033829 C20.4478966,20.11571 20.7975452,19.4312916 20.9831336,18.6953617 C21.2052774,17.7962764 21.3084362,16.8731833 21.2902728,15.9484804 C21.2903226,13.6743017 20.7735445,12.0340345 19.7182084,11.033379 C18.6687188,10.0382672 17.0339956,9.5483871 14.8283871,9.5483871 L10.6993548,9.5483871 C10.3082225,9.55222417 9.97700828,9.26737992 9.92260398,8.88259314 C9.92260398,8.86567323 9.92260398,8.82723 9.92474304,8.78888015 C9.92516129,8.34661826 10.2717795,8 10.6993548,8 L14.9058065,8 C17.7375954,8 19.8692209,8.68457209 21.3129218,10.0442698 C22.7588652,11.4580207 23.483871,13.4378001 23.483871,16 Z" id="路径" fill="#000000"></path>
                    <rect id="矩形" fill="#08070B" x="42.7251613" y="0.258064516" width="1" height="31.36"></rect>
                </g>
            </g>
        </g>
    </g>
</svg>