<svg xmlns="http://www.w3.org/2000/svg" width="455.091" height="74.456" viewBox="0 0 455.091 74.456">
  <g id="组_8" data-name="组 8" transform="translate(-766.812 -241.491)">
    <g id="组_6" data-name="组 6">
      <path id="路径_33" data-name="路径 33" d="M885.989,297.5V274.077l-5.116,15.4H877.6l-5.01-15.138V297.5h-5.908V259.941h5.327l7.279,19.727,7.227-19.727H891.9V297.5Z" fill="#505050"/>
      <path id="路径_34" data-name="路径 34" d="M914.576,297.5l-1.53-7.437h-8.7l-1.477,7.437h-6.224l9.231-37.555h5.749l9.125,37.555Zm-5.856-28.483L905.5,284.732h6.434Z" fill="#505050"/>
      <path id="路径_35" data-name="路径 35" d="M939.681,297.5l-4.906-15.4h-3.323v15.4h-5.907V259.941h9.493c6.858,0,9.6,3.323,9.6,11.077,0,4.641-.948,7.964-4.377,9.81l5.591,16.668Zm-4.59-32.228h-3.639v11.5h3.639c3.166,0,3.64-2.637,3.64-5.749S938.257,265.268,935.091,265.268Z" fill="#505050"/>
      <path id="路径_36" data-name="路径 36" d="M967.793,295.386c-1.529,1.477-4.009,2.479-7.332,2.479-3.27,0-5.7-.9-7.279-2.479-1.794-1.793-2.425-4.114-2.425-8.07h5.907c0,2,.211,3.27,1.055,4.22a3.571,3.571,0,0,0,2.742,1,3.478,3.478,0,0,0,2.849-1.055c.79-.9,1-2.163,1-4.167,0-4.008-.633-5.011-3.534-6.171l-4.484-1.846c-3.8-1.583-5.221-3.64-5.221-9.442,0-3.375,1-6.118,3.059-7.964a9.445,9.445,0,0,1,6.435-2.269c3.006,0,5.221.792,6.752,2.269,1.951,1.9,2.636,4.589,2.636,8.175h-5.908c0-1.688-.1-3.006-.9-4.008a3.11,3.11,0,0,0-2.638-1.108,3.163,3.163,0,0,0-2.532,1.055,5.609,5.609,0,0,0-1,3.692c0,3.059.474,4.009,3.112,5.064l4.43,1.793c4.483,1.846,5.7,4.22,5.7,10.549C970.22,290.956,969.691,293.54,967.793,295.386Z" fill="#505050"/>
      <path id="路径_37" data-name="路径 37" d="M1004.184,295.123c-1.582,1.634-3.9,2.373-7.385,2.373h-9.335V259.941h9.388c3.482,0,5.75.739,7.332,2.321,1.688,1.74,2.321,4.22,2.321,7.912,0,2.531-.264,4.641-1.952,6.329a6.09,6.09,0,0,1-1.951,1.319,5.431,5.431,0,0,1,2,1.371c1.846,2.005,2,4.853,2,7.174C1006.61,290.639,1005.978,293.276,1004.184,295.123Zm-8.017-29.855h-2.795v10.18h2.795c3.112,0,4.43-1.529,4.43-5.116C1000.6,266.534,999.331,265.268,996.167,265.268Zm.052,15.191h-2.847v11.71h2.847c3.218,0,4.483-1.477,4.483-5.855C1000.7,282.147,999.384,280.459,996.219,280.459Z" fill="#505050"/>
      <path id="路径_38" data-name="路径 38" d="M1013.676,297.5V259.941h5.908v32.228h9.862V297.5Z" fill="#505050"/>
      <path id="路径_39" data-name="路径 39" d="M1050.6,294.753a9.952,9.952,0,0,1-14.557,0c-2.8-3.164-2.743-8.65-2.743-16.034s-.053-12.87,2.743-16.035a9.952,9.952,0,0,1,14.557,0c2.8,3.165,2.743,8.65,2.743,16.035S1053.393,291.589,1050.6,294.753Zm-4.43-28.482a3.116,3.116,0,0,0-2.848-1.425,3.024,3.024,0,0,0-2.8,1.425c-1.107,1.793-1.318,5.59-1.318,12.448s.211,10.654,1.318,12.448a3.026,3.026,0,0,0,2.8,1.424,3.117,3.117,0,0,0,2.848-1.424c1.108-1.794,1.265-5.591,1.265-12.448S1047.275,268.064,1046.167,266.271Z" fill="#505050"/>
      <path id="路径_40" data-name="路径 40" d="M1075.491,295.545a9.072,9.072,0,0,1-6.487,2.373,8.962,8.962,0,0,1-7.279-3.165c-2.8-3.164-2.743-8.6-2.743-15.982s-.053-12.922,2.743-16.087a9.986,9.986,0,0,1,13.819-.738c1.846,1.74,2.9,4.588,3.006,7.911h-5.907a7.154,7.154,0,0,0-.9-3.639,2.9,2.9,0,0,0-2.742-1.372,3.024,3.024,0,0,0-2.8,1.425c-1.108,1.793-1.318,5.59-1.318,12.448s.21,10.654,1.318,12.448a3.025,3.025,0,0,0,2.8,1.424,2.993,2.993,0,0,0,2.795-1.372,7.359,7.359,0,0,0,.9-3.692h5.907C1078.5,290.9,1077.39,293.8,1075.491,295.545Z" fill="#505050"/>
      <path id="路径_41" data-name="路径 41" d="M1099.7,297.5l-6.066-15.454-2.847,5.8V297.5h-5.908V259.941h5.908v17.67l8.174-17.67h5.961l-7.543,15.56,8.7,21.995Z" fill="#505050"/>
      <path id="路径_42" data-name="路径 42" d="M1126.176,295.545a9.071,9.071,0,0,1-6.488,2.373,8.962,8.962,0,0,1-7.278-3.165c-2.8-3.164-2.743-8.6-2.743-15.982s-.053-12.922,2.743-16.087a9.986,9.986,0,0,1,13.819-.738c1.847,1.74,2.9,4.588,3.008,7.911h-5.908a7.165,7.165,0,0,0-.9-3.639,2.9,2.9,0,0,0-2.744-1.372,3.027,3.027,0,0,0-2.8,1.425c-1.108,1.793-1.318,5.59-1.318,12.448s.21,10.654,1.318,12.448a3.028,3.028,0,0,0,2.8,1.424,3,3,0,0,0,2.8-1.372,7.359,7.359,0,0,0,.9-3.692h5.907C1129.184,290.9,1128.076,293.8,1126.176,295.545Z" fill="#505050"/>
      <path id="路径_43" data-name="路径 43" d="M1148.8,297.5V281.039h-7.331V297.5h-5.908V259.941h5.908v15.824h7.331V259.941h5.908V297.5Z" fill="#505050"/>
      <path id="路径_44" data-name="路径 44" d="M1177.39,297.5l-1.531-7.437h-8.7l-1.477,7.437h-6.224l9.232-37.555h5.748l9.126,37.555Zm-5.856-28.483-3.217,15.719h6.435Z" fill="#505050"/>
      <path id="路径_45" data-name="路径 45" d="M1188.359,297.5V259.941h5.908V297.5Z" fill="#505050"/>
      <path id="路径_46" data-name="路径 46" d="M1216.682,297.5l-8.861-22.311V297.5h-5.907V259.941h5.274L1216,282.253V259.941h5.907V297.5Z" fill="#505050"/>
    </g>
    <g id="组_7" data-name="组 7">
      <path id="路径_47" data-name="路径 47" d="M779.026,296.35l15.618-11.231,16.454,7.822,3.317-2.714,39.326-29.6H834.888l-25.827,18.967-12.685-5.614-3.233-1.682-19.024,12.953a30.445,30.445,0,0,0,4.261,10.177C778.586,295.739,778.809,296.042,779.026,296.35Z" fill="#e60014"/>
      <path id="路径_48" data-name="路径 48" d="M834.6,280.89l-.082.844a30.607,30.607,0,0,1-55.494,14.616c-.217-.308-.44-.611-.646-.927a30.445,30.445,0,0,1-4.261-10.177c-.089-.406-.175-.812-.247-1.223a30.613,30.613,0,0,1,51.647-27.114l1.172,1.155,5.361-3.938-1.575-1.59a37.168,37.168,0,1,0,10.774,27.275l.116-4.014Z" fill="#e60014"/>
    </g>
  </g>
</svg>
