<svg xmlns="http://www.w3.org/2000/svg" xmlns:xlink="http://www.w3.org/1999/xlink" width="1104" height="224.188" viewBox="0 0 1104 224.188">
  <defs>
    <linearGradient id="linear-gradient" x1="-0.084" y1="0.352" x2="0.852" y2="0.783" gradientUnits="objectBoundingBox">
      <stop offset="0" stop-color="#53e57a" stop-opacity="0"/>
      <stop offset="1" stop-color="#00a977"/>
    </linearGradient>
  </defs>
  <g id="组_3" data-name="组 3" transform="translate(-133 -273.906)">
    <g id="组_2" data-name="组 2">
      <g id="组_1" data-name="组 1">
        <path id="路径_1" data-name="路径 1" d="M488.686,439.4,404.435,293.472c-15.061-26.088-52.715-26.088-67.776,0L252.408,439.4c-15.061,26.088,3.766,58.7,33.889,58.7H454.8C484.92,498.094,503.747,465.485,488.686,439.4Z" fill="#008477"/>
        <path id="路径_2" data-name="路径 2" d="M376.383,442.523l-4.9-8.488c-4.526-7.926-14.46-25.052-14.46-25.052L290.328,293.472c-15.062-26.088-52.715-26.088-67.777,0L138.3,439.4c-15.062,26.088,3.765,58.7,33.888,58.7H454.946C413.29,498.094,395.78,475.654,376.383,442.523Z" fill="#76fcb2"/>
        <path id="路径_3" data-name="路径 3" d="M376.383,442.523l-4.9-8.488c-4.526-7.926-14.46-25.052-14.46-25.052l-43.528-75.389L252.408,439.4c-15.061,26.088,3.766,58.7,33.889,58.7H454.8c.017,0,.033,0,.051,0C413.265,498.054,395.764,475.627,376.383,442.523Z" fill="url(#linear-gradient)"/>
      </g>
    </g>
    <path id="路径_4" data-name="路径 4" d="M738.947,326.581l-61.733,89.137-63.065-89.137h-39.09V474.925h35.17V369.332l62.992,88.425h8.217l60.9-85.495V474.925h35.17V326.581Z"/>
    <path id="路径_5" data-name="路径 5" d="M1025.822,326.283h-44.8L935,376.8l-46.12-50.522h-44.8l68.473,71.429-74.019,77.214h44.8L933.7,419.184l52.872,55.741h44.8l-74.019-77.214Z"/>
    <path id="路径_6" data-name="路径 6" d="M1118.6,354.014H1237V325.857H1105.445a26.721,26.721,0,0,0-26.722,26.72v95.876a26.721,26.721,0,0,0,26.722,26.721H1237V447.017H1118.6a5.323,5.323,0,0,1-5.322-5.323V359.336A5.322,5.322,0,0,1,1118.6,354.014Z"/>
  </g>
</svg>
