<svg xmlns="http://www.w3.org/2000/svg" width="1521.908" height="504.895" viewBox="0 0 1521.908 504.895">
  <g id="组_21" data-name="组 21" transform="translate(-345.011 -2273.926)">
    <g id="组_16" data-name="组 16">
      <g id="组_15" data-name="组 15">
        <path id="路径_61" data-name="路径 61" d="M570.282,2499.2a114.287,114.287,0,0,0,54.352,0,114.419,114.419,0,0,1,83.82-83.82,114.275,114.275,0,1,0-221.992,0A114.421,114.421,0,0,1,570.282,2499.2Z" fill="#88bdf3"/>
        <path id="路径_62" data-name="路径 62" d="M624.634,2553.549a114.287,114.287,0,0,0-54.352,0,114.42,114.42,0,0,1-83.82,83.82,114.275,114.275,0,1,0,221.992,0A114.418,114.418,0,0,1,624.634,2553.549Z" fill="#3075ee"/>
        <path id="路径_63" data-name="路径 63" d="M735.63,2412.1a114.445,114.445,0,0,0-27.176,3.279,114.419,114.419,0,0,1-83.82,83.82,114.291,114.291,0,0,0,0,54.352,114.419,114.419,0,0,1,83.82,83.82A114.275,114.275,0,1,0,735.63,2412.1Z" fill="#5795f1"/>
        <path id="路径_64" data-name="路径 64" d="M570.282,2553.549a114.289,114.289,0,0,0,0-54.352,114.419,114.419,0,0,1-83.82-83.82,114.275,114.275,0,1,0,0,221.992A114.419,114.419,0,0,1,570.282,2553.549Z" fill="#205fec"/>
      </g>
      <path id="路径_65" data-name="路径 65" d="M624.634,2499.2a114.419,114.419,0,0,0,83.82-83.82A114.419,114.419,0,0,0,624.634,2499.2Z" fill="#3170f1"/>
      <path id="路径_66" data-name="路径 66" d="M624.634,2553.549a114.418,114.418,0,0,0,83.82,83.82A114.419,114.419,0,0,0,624.634,2553.549Z" fill="#164bea"/>
      <path id="路径_67" data-name="路径 67" d="M570.282,2499.2a114.421,114.421,0,0,0-83.82-83.82A114.419,114.419,0,0,0,570.282,2499.2Z" fill="#134bef"/>
      <path id="路径_68" data-name="路径 68" d="M570.282,2553.549a114.419,114.419,0,0,0-83.82,83.82A114.42,114.42,0,0,0,570.282,2553.549Z" fill="#0932e8"/>
    </g>
    <g id="组_20" data-name="组 20">
      <g id="组_17" data-name="组 17">
        <path id="路径_69" data-name="路径 69" d="M931.865,2338.089v-1.379c0-36.74,26.907-62.784,63.474-62.784,37.083,0,63.474,25.009,63.474,62.093v1.381c0,36.738-25.183,63.473-63.647,63.473C956.53,2400.873,931.865,2374.138,931.865,2338.089Zm97.8-.345v-1.38c0-23.975-12.763-40.36-34.323-40.36-21.389,0-34.325,15.7-34.325,40.533v1.38c0,25.182,14.489,40.706,34.669,40.706C1016.554,2378.623,1029.662,2362.582,1029.662,2337.744Z"/>
        <path id="路径_70" data-name="路径 70" d="M1077.377,2275.65h22.558a2.692,2.692,0,0,1,2.692,2.692v50.433l42.313-52.129a2.692,2.692,0,0,1,2.09-1h24.542a1.8,1.8,0,0,1,1.376,2.947L1126.6,2333.95l48.939,62.121a1.794,1.794,0,0,1-1.409,2.905h-27.576a2.694,2.694,0,0,1-2.134-1.05l-41.8-54.317v52.675a2.692,2.692,0,0,1-2.692,2.692h-22.558a2.692,2.692,0,0,1-2.692-2.692V2278.342A2.692,2.692,0,0,1,1077.377,2275.65Z"/>
        <path id="路径_71" data-name="路径 71" d="M1191.391,2275.65h74.993a2.692,2.692,0,0,1,2.692,2.692v16.349a2.692,2.692,0,0,1-2.692,2.692h-48.121a1.8,1.8,0,0,0-1.794,1.795v25.215a1.794,1.794,0,0,0,1.794,1.795h37.6a2.692,2.692,0,0,1,2.692,2.692v14.969a2.692,2.692,0,0,1-2.692,2.692h-37.6a1.794,1.794,0,0,0-1.794,1.795v27.112a1.8,1.8,0,0,0,1.794,1.795h50.881a2.692,2.692,0,0,1,2.692,2.692v16.349a2.692,2.692,0,0,1-2.692,2.692h-77.753a2.692,2.692,0,0,1-2.692-2.692V2278.342A2.692,2.692,0,0,1,1191.391,2275.65Z"/>
        <path id="路径_72" data-name="路径 72" d="M1308.057,2352.923l-26.542-40.687a2.243,2.243,0,0,1,1.879-3.469h23.495a1.8,1.8,0,0,1,1.523.844l14.838,23.772a1.794,1.794,0,0,0,3.053-.014l14.518-23.744a1.8,1.8,0,0,1,1.531-.858h20.623a2.243,2.243,0,0,1,1.854,3.507l-26.415,38.752,29.433,44.469a2.243,2.243,0,0,1-1.871,3.481h-23.635a1.8,1.8,0,0,1-1.522-.843l-16.944-27.112a1.8,1.8,0,0,0-3.032-.018l-17.431,27.148a1.794,1.794,0,0,1-1.51.825h-20.515a2.243,2.243,0,0,1-1.863-3.492Z"/>
      </g>
      <g id="组_18" data-name="组 18">
        <path id="路径_73" data-name="路径 73" d="M931.865,2470.765a2.692,2.692,0,0,1,2.691-2.692h45.776c26.908,0,40.879,11.039,40.879,32.082v.69c0,12.937-6.21,22.423-20.008,26.39,16.041,3.277,24.665,12.419,24.665,28.978v.689c0,22.6-14.834,34.5-43.293,34.5H934.556a2.691,2.691,0,0,1-2.691-2.692Zm43.983,48.019c13.454,0,18.8-4.83,18.8-15.869v-.69c0-10.349-5.864-15.006-18.973-15.006H960.912a1.8,1.8,0,0,0-1.795,1.795v27.975a1.8,1.8,0,0,0,1.795,1.795Zm2.415,53.3c13.8,0,20.008-6.21,20.008-17.421v-.69c0-11.384-6.21-17.248-21.389-17.248h-15.97a1.8,1.8,0,0,0-1.795,1.794v31.77a1.8,1.8,0,0,0,1.795,1.8Z"/>
        <path id="路径_74" data-name="路径 74" d="M1042.362,2460.312h19.454a2.692,2.692,0,0,1,2.692,2.692v125.7a2.692,2.692,0,0,1-2.692,2.692h-19.454a2.692,2.692,0,0,1-2.692-2.692V2463A2.692,2.692,0,0,1,1042.362,2460.312Z"/>
        <path id="路径_75" data-name="路径 75" d="M1077.445,2547.243v-1.38c0-28.287,20.526-46.743,47.606-46.743s47.433,18.111,47.433,46.226v1.38c0,28.46-20.526,46.571-47.606,46.571C1097.971,2593.3,1077.445,2575.358,1077.445,2547.243Zm69.684-.344v-1.208c0-17.248-8.107-27.6-22.078-27.6-13.8,0-22.078,10-22.078,27.252v1.38c0,17.248,7.934,27.6,22.078,27.6C1139.022,2574.323,1147.129,2563.974,1147.129,2546.9Z"/>
        <path id="路径_76" data-name="路径 76" d="M1179.386,2547.416v-1.38c0-29.15,20.871-46.916,46.571-46.916,20.029,0,38.629,8.42,42.078,31.968a2.684,2.684,0,0,1-2.67,3.047H1246.24a1.788,1.788,0,0,1-1.748-1.407c-2.05-9.546-8.306-13.944-18.017-13.944-12.937,0-21.561,9.659-21.561,26.907v1.38c0,18.111,8.107,27.425,22.078,27.425,9.566,0,17.4-5.362,19.12-15.935a1.782,1.782,0,0,1,1.763-1.486h18.062a2.684,2.684,0,0,1,2.676,3.005c-2.588,19.759-17.858,33.217-42.829,33.217C1199.4,2593.3,1179.386,2576.91,1179.386,2547.416Z"/>
        <path id="路径_77" data-name="路径 77" d="M1282.982,2460.312h19.627A2.692,2.692,0,0,1,1305.3,2463v72.31a1.346,1.346,0,0,0,2.417.815l26.021-34.23a1.793,1.793,0,0,1,1.429-.709h21.943a1.8,1.8,0,0,1,1.4,2.914l-30.446,38.137,33.315,46.316a1.794,1.794,0,0,1-1.457,2.842h-23.852a1.791,1.791,0,0,1-1.469-.765l-26.856-38.343a1.346,1.346,0,0,0-2.448.772v35.644a2.692,2.692,0,0,1-2.692,2.692h-19.627a2.692,2.692,0,0,1-2.692-2.692V2463A2.692,2.692,0,0,1,1282.982,2460.312Z"/>
        <path id="路径_78" data-name="路径 78" d="M1362.741,2547.588v-1.38c0-29.667,17.076-47.088,39.671-47.088,13.725,0,22.5,5.727,27.635,14.1a.445.445,0,0,0,.825-.235V2463a2.692,2.692,0,0,1,2.691-2.692h19.454a2.692,2.692,0,0,1,2.692,2.692v125.7a2.692,2.692,0,0,1-2.692,2.692h-19.454a2.691,2.691,0,0,1-2.691-2.692V2578.12a.445.445,0,0,0-.829-.227c-5.053,8.475-15.6,15.4-28.148,15.4C1379.989,2593.3,1362.741,2577.6,1362.741,2547.588Zm68.821-.862v-1.38c0-17.938-7.935-27.08-21.561-27.08-13.971,0-21.733,9.487-21.733,27.425v1.38c0,17.938,8.624,26.735,21.043,26.735C1422.42,2573.806,1431.562,2565.009,1431.562,2546.726Z"/>
        <path id="路径_79" data-name="路径 79" d="M1476.342,2501.19h19.627a2.692,2.692,0,0,1,2.692,2.692v14.557c5.312-11.269,13.329-17.58,26.3-18.511a2.685,2.685,0,0,1,2.854,2.689v17.812a2.694,2.694,0,0,1-2.634,2.686c-16.835.421-26.515,6.683-26.515,23.093v42.5a2.692,2.692,0,0,1-2.692,2.692h-19.627a2.692,2.692,0,0,1-2.692-2.692v-84.825A2.692,2.692,0,0,1,1476.342,2501.19Z"/>
        <path id="路径_80" data-name="路径 80" d="M1532.816,2547.416v-1.38c0-28.46,20.18-46.916,46.4-46.916,23.286,0,43.983,13.626,43.983,45.881v4.208a2.692,2.692,0,0,1-2.691,2.692H1560.1a1.8,1.8,0,0,0-1.791,1.97c1.288,13.788,9.268,21.66,22.286,21.66,10.594,0,16.259-4.2,18.325-10.749a2.7,2.7,0,0,1,2.588-1.842h18.254a2.7,2.7,0,0,1,2.62,3.333c-4.137,17.392-19.256,27.024-42.477,27.024C1552.652,2593.3,1532.816,2576.221,1532.816,2547.416Zm64.1-10.867a1.807,1.807,0,0,0,1.788-2.009c-1.4-12.262-8.186-18.171-19.487-18.171-10.563,0-17.911,6.583-20.312,18.02a1.8,1.8,0,0,0,1.763,2.16Z"/>
        <path id="路径_81" data-name="路径 81" d="M1630.27,2566.389c0-21.043,19.318-28.977,46.915-28.977h9.728a.449.449,0,0,0,.448-.449v-3.174c0-10.693-3.277-16.558-14.661-16.558-8.937,0-13.456,4.134-14.981,10.717a2.672,2.672,0,0,1-2.61,2.047h-18.38a2.7,2.7,0,0,1-2.665-3.108c2.9-19.2,19.211-27.767,40.189-27.767,22.078,0,37.773,8.97,37.773,33.462v56.125a2.692,2.692,0,0,1-2.692,2.692H1690.4a2.691,2.691,0,0,1-2.691-2.692v-8.174c-5.175,7.244-13.11,12.764-27.253,12.764C1644.068,2593.3,1630.27,2585.362,1630.27,2566.389Zm57.091-6.554v-7.141a.449.449,0,0,0-.448-.449H1677.7c-14.488,0-22.94,3.1-22.94,12.764,0,6.555,3.967,10.867,13.109,10.867C1678.909,2575.876,1687.361,2569.839,1687.361,2559.835Z"/>
        <path id="路径_82" data-name="路径 82" d="M1731.8,2501.19h19.627a2.692,2.692,0,0,1,2.691,2.692v9.427a.445.445,0,0,0,.825.234c4.783-7.834,14.092-14.423,26.773-14.423,11.619,0,20.444,4.768,24.868,14.946a.442.442,0,0,0,.773.079c7.274-10.394,18.752-15.025,29.9-15.025,16.731,0,29.667,10.522,29.667,34.5v55.09a2.691,2.691,0,0,1-2.691,2.692h-19.454a2.692,2.692,0,0,1-2.692-2.692v-52.33c0-11.556-5.174-16.731-14.144-16.731-9.659,0-17.421,6.21-17.421,18.456v50.6a2.692,2.692,0,0,1-2.692,2.692h-19.453a2.692,2.692,0,0,1-2.692-2.692v-52.33c0-11.556-5.347-16.731-14.144-16.731-9.659,0-17.421,6.21-17.421,18.456v50.6a2.691,2.691,0,0,1-2.691,2.692H1731.8a2.692,2.692,0,0,1-2.692-2.692v-84.825A2.692,2.692,0,0,1,1731.8,2501.19Z"/>
      </g>
      <g id="组_19" data-name="组 19">
        <path id="路径_83" data-name="路径 83" d="M934.558,2653.6h23.773a2.692,2.692,0,0,1,2.571,1.9l28.307,91.414a.449.449,0,0,0,.857,0l28.307-91.414a2.692,2.692,0,0,1,2.571-1.9h20.5a2.692,2.692,0,0,1,2.554,3.542l-39.259,117.942a2.692,2.692,0,0,1-2.554,1.842h-28.2a2.693,2.693,0,0,1-2.553-1.838l-39.424-117.943A2.692,2.692,0,0,1,934.558,2653.6Z"/>
        <path id="路径_84" data-name="路径 84" d="M1038.281,2732.94v-1.38c0-28.46,20.18-46.916,46.4-46.916,23.285,0,43.983,13.626,43.983,45.881v4.208a2.692,2.692,0,0,1-2.692,2.692h-60.406a1.8,1.8,0,0,0-1.792,1.97c1.288,13.788,9.268,21.66,22.286,21.66,10.594,0,16.259-4.2,18.326-10.749a2.7,2.7,0,0,1,2.587-1.842h18.255a2.7,2.7,0,0,1,2.62,3.333c-4.138,17.392-19.256,27.024-42.477,27.024C1058.116,2778.821,1038.281,2761.745,1038.281,2732.94Zm64.1-10.867a1.806,1.806,0,0,0,1.788-2.009c-1.4-12.262-8.186-18.171-19.486-18.171-10.564,0-17.911,6.583-20.313,18.02a1.8,1.8,0,0,0,1.763,2.16Z"/>
        <path id="路径_85" data-name="路径 85" d="M1143.43,2686.714h19.626a2.692,2.692,0,0,1,2.692,2.692v9.865a.444.444,0,0,0,.829.225c4.806-8.265,14.352-14.852,28.493-14.852,17.766,0,30.357,10.7,30.357,34.842v54.745a2.692,2.692,0,0,1-2.692,2.692h-19.626a2.692,2.692,0,0,1-2.692-2.692v-51.122c0-12.247-4.829-18.112-15.868-18.112-10.694,0-18.8,6.555-18.8,19.836v49.4a2.692,2.692,0,0,1-2.692,2.692H1143.43a2.692,2.692,0,0,1-2.692-2.692v-84.825A2.692,2.692,0,0,1,1143.43,2686.714Z"/>
        <path id="路径_86" data-name="路径 86" d="M1246.3,2750.188v-45.259a.449.449,0,0,0-.449-.449h-8.416a2.691,2.691,0,0,1-2.691-2.692v-12.382a2.691,2.691,0,0,1,2.691-2.692h8.865v-16.8a2.692,2.692,0,0,1,2.692-2.692h19.454a2.692,2.692,0,0,1,2.692,2.692v16.8h16.281a2.692,2.692,0,0,1,2.692,2.692v12.382a2.692,2.692,0,0,1-2.692,2.692h-15.833a.448.448,0,0,0-.448.449v43.017c0,7.244,3.622,10.694,10,10.694a26.093,26.093,0,0,0,6.138-.635,2.7,2.7,0,0,1,3.348,2.608v13.656a2.689,2.689,0,0,1-1.932,2.585,46.72,46.72,0,0,1-13.246,1.794C1256.477,2778.648,1246.3,2768.989,1246.3,2750.188Z"/>
        <path id="路径_87" data-name="路径 87" d="M1302.531,2744.841v-55.435a2.692,2.692,0,0,1,2.692-2.692h19.454a2.692,2.692,0,0,1,2.692,2.692v51.985c0,12.247,5,18.111,15.7,18.111,10.522,0,18.8-6.554,18.8-19.835v-50.261a2.692,2.692,0,0,1,2.692-2.692h19.454a2.691,2.691,0,0,1,2.691,2.692v84.825a2.692,2.692,0,0,1-2.691,2.692h-19.454a2.692,2.692,0,0,1-2.692-2.692V2762.78c-4.657,9.141-13.8,16.041-28.632,16.041C1315.64,2778.821,1302.531,2768.471,1302.531,2744.841Z"/>
        <path id="路径_88" data-name="路径 88" d="M1407.165,2686.714h19.626a2.692,2.692,0,0,1,2.692,2.692v14.557c5.312-11.269,13.329-17.58,26.295-18.511a2.686,2.686,0,0,1,2.855,2.689v17.812a2.694,2.694,0,0,1-2.634,2.686c-16.836.421-26.516,6.683-26.516,23.094v42.5a2.692,2.692,0,0,1-2.692,2.692h-19.626a2.692,2.692,0,0,1-2.692-2.692v-84.825A2.692,2.692,0,0,1,1407.165,2686.714Z"/>
        <path id="路径_89" data-name="路径 89" d="M1463.639,2732.94v-1.38c0-28.46,20.18-46.916,46.4-46.916,23.285,0,43.983,13.626,43.983,45.881v4.208a2.692,2.692,0,0,1-2.692,2.692h-60.406a1.8,1.8,0,0,0-1.792,1.97c1.288,13.788,9.268,21.66,22.286,21.66,10.594,0,16.259-4.2,18.326-10.749a2.7,2.7,0,0,1,2.587-1.842h18.255a2.7,2.7,0,0,1,2.62,3.333c-4.138,17.392-19.256,27.024-42.477,27.024C1483.474,2778.821,1463.639,2761.745,1463.639,2732.94Zm64.1-10.867a1.806,1.806,0,0,0,1.788-2.009c-1.395-12.262-8.186-18.171-19.486-18.171-10.563,0-17.911,6.583-20.313,18.02a1.8,1.8,0,0,0,1.763,2.16Z"/>
        <path id="路径_90" data-name="路径 90" d="M1563.325,2748.636h18.092a2.672,2.672,0,0,1,2.622,2.093c1.449,6.81,5.623,10.671,15.517,10.671,9.659,0,14.143-3.622,14.143-9.832s-5.347-8.8-18.283-10.694c-23.975-3.622-33.289-10.522-33.289-28.115,0-18.8,17.248-28.115,35.7-28.115,18.932,0,33.386,6.487,36.785,24.72a2.705,2.705,0,0,1-2.642,3.223h-17.7a2.672,2.672,0,0,1-2.577-1.923c-1.723-6.092-5.857-8.944-13.7-8.944-8.107,0-12.763,3.795-12.763,9.314,0,5.692,4.312,7.935,17.42,9.832,22.6,3.277,35.015,8.969,35.015,28.287,0,19.491-14.144,29.668-37.947,29.668-23.016,0-36.918-9.579-39.073-27.127A2.706,2.706,0,0,1,1563.325,2748.636Z"/>
      </g>
    </g>
  </g>
</svg>
